<?xml version="1.0" standalone="no"?><!-- Generator: Gravit.io --><svg xmlns="http://www.w3.org/2000/svg" xmlns:xlink="http://www.w3.org/1999/xlink" style="isolation:isolate" viewBox="0 0 560 212" width="560" height="212"><defs><clipPath id="_clipPath_2TF3AShCsHFWOuRGVaEzt10ECyjjMKu1"><rect width="560" height="212"/></clipPath></defs><g clip-path="url(#_clipPath_2TF3AShCsHFWOuRGVaEzt10ECyjjMKu1)"><rect width="560" height="212" style="fill:rgb(81,81,81)" fill-opacity="0"/><g><g><g><path d=" M 90.587 104.881 L 91.84 92.888 L 91.393 92.888 L 88.081 103.628 L 77.878 125.645 L 74.119 125.645 L 63.29 103.539 L 59.979 92.709 L 59.442 92.709 L 61.142 104.792 L 61.142 137.19 L 50.492 137.19 L 50.492 74.541 L 61.321 74.541 L 74.388 101.659 L 76.536 109.446 L 76.894 109.446 L 78.952 101.48 L 91.214 74.541 L 101.864 74.541 L 101.864 137.19 L 90.587 137.19 L 90.587 104.881 Z " fill="rgb(255,255,255)"/><path d=" M 109.835 95.126 Q 112.52 93.515 116.547 92.53 Q 120.575 91.546 125.676 91.546 Q 133.284 91.546 136.237 95.484 Q 139.28 99.422 139.28 106.671 Q 139.28 110.878 139.012 114.995 Q 138.833 119.022 138.743 122.96 Q 138.654 126.808 138.833 130.478 Q 139.101 134.058 140.086 137.28 L 131.404 137.28 L 129.704 131.82 L 129.346 131.82 Q 127.914 134.416 125.318 136.116 Q 122.723 137.817 118.785 137.817 Q 113.504 137.817 110.461 134.326 Q 107.419 130.746 107.419 124.839 Q 107.419 116.785 113.146 113.384 Q 118.874 109.983 128.63 110.52 Q 129.077 105.329 127.914 103.002 Q 126.84 100.675 123.17 100.675 Q 120.485 100.675 117.621 101.301 Q 114.757 101.928 112.52 103.091 L 109.835 95.126 Z  M 122.633 128.688 Q 125.05 128.688 126.571 127.524 Q 128.093 126.271 128.809 124.839 L 128.809 117.411 Q 126.75 117.143 124.871 117.322 Q 122.991 117.501 121.559 118.127 Q 120.127 118.754 119.232 120.007 Q 118.427 121.17 118.427 123.05 Q 118.427 125.824 119.501 127.256 Q 120.664 128.688 122.633 128.688 Z " fill="rgb(255,255,255)"/><path d=" M 167.75 103.002 Q 165.602 102.196 163.813 102.196 Q 161.396 102.196 159.606 103.539 Q 157.906 104.881 157.279 107.298 L 157.279 137.19 L 146.629 137.19 L 146.629 92.441 L 154.773 92.441 L 156.026 97.811 L 156.384 97.811 Q 157.548 94.857 159.696 93.246 Q 161.933 91.546 164.797 91.546 Q 166.945 91.546 169.003 92.441 L 167.75 103.002 Z " fill="rgb(255,255,255)"/><path d=" M 173.744 92.441 L 184.394 92.441 L 184.394 137.19 L 173.744 137.19 L 173.744 92.441 Z  M 172.491 79.822 Q 172.491 77.137 174.192 75.436 Q 175.892 73.646 179.024 73.646 Q 182.157 73.646 184.036 75.347 Q 185.916 77.047 185.916 79.822 Q 185.916 82.596 184.036 84.207 Q 182.157 85.818 179.024 85.818 Q 175.892 85.818 174.192 84.207 Q 172.491 82.507 172.491 79.822 L 172.491 79.822 Z " fill="rgb(255,255,255)"/><path d=" M 193.041 95.126 Q 195.726 93.515 199.753 92.53 Q 203.781 91.546 208.882 91.546 Q 216.489 91.546 219.443 95.484 Q 222.486 99.422 222.486 106.671 Q 222.486 110.878 222.217 114.995 Q 222.038 119.022 221.949 122.96 Q 221.859 126.808 222.038 130.478 Q 222.307 134.058 223.291 137.28 L 214.61 137.28 L 212.91 131.82 L 212.552 131.82 Q 211.12 134.416 208.524 136.116 Q 205.929 137.817 201.991 137.817 Q 196.71 137.817 193.667 134.326 Q 190.624 130.746 190.624 124.839 Q 190.624 116.785 196.352 113.384 Q 202.08 109.983 211.836 110.52 Q 212.283 105.329 211.12 103.002 Q 210.046 100.675 206.376 100.675 Q 203.691 100.675 200.827 101.301 Q 197.963 101.928 195.726 103.091 L 193.041 95.126 Z  M 205.839 128.688 Q 208.256 128.688 209.777 127.524 Q 211.299 126.271 212.015 124.839 L 212.015 117.411 Q 209.956 117.143 208.077 117.322 Q 206.197 117.501 204.765 118.127 Q 203.333 118.754 202.438 120.007 Q 201.633 121.17 201.633 123.05 Q 201.633 125.824 202.707 127.256 Q 203.87 128.688 205.839 128.688 Z " fill="rgb(255,255,255)"/><path d=" M 284.167 89.04 Q 284.167 91.367 283.63 93.694 Q 283.183 95.931 282.109 97.99 Q 281.035 99.959 279.245 101.48 Q 277.544 103.002 275.128 103.807 L 275.128 104.344 Q 277.276 104.881 279.155 105.955 Q 281.124 107.029 282.556 108.909 Q 283.988 110.699 284.794 113.384 Q 285.689 115.979 285.689 119.559 Q 285.689 124.392 283.988 127.972 Q 282.377 131.462 279.513 133.7 Q 276.739 135.937 272.98 137.011 Q 269.221 138.085 265.015 138.085 Q 263.762 138.085 261.793 138.085 Q 259.824 138.085 257.497 137.906 Q 255.259 137.817 252.843 137.548 Q 250.426 137.28 248.368 136.743 L 248.368 74.989 Q 251.321 74.452 255.617 74.094 Q 260.003 73.646 264.299 73.646 Q 268.237 73.646 271.816 74.273 Q 275.486 74.899 278.171 76.6 Q 280.945 78.3 282.556 81.343 Q 284.167 84.297 284.167 89.04 L 284.167 89.04 Z  M 265.283 128.33 Q 269.042 128.33 271.458 125.913 Q 273.875 123.497 273.875 118.843 Q 273.875 115.89 273.069 114.189 Q 272.264 112.399 270.921 111.504 Q 269.579 110.52 267.789 110.251 Q 266.089 109.983 264.209 109.983 L 259.645 109.983 L 259.645 127.793 Q 260.361 128.061 262.061 128.24 Q 263.851 128.33 265.283 128.33 L 265.283 128.33 Z  M 262.24 101.122 Q 263.225 101.122 264.478 101.033 Q 265.82 100.854 266.626 100.675 Q 269.221 99.69 271.011 97.453 Q 272.89 95.215 272.89 91.635 Q 272.89 89.308 272.264 87.698 Q 271.637 86.087 270.563 85.192 Q 269.49 84.207 267.968 83.849 Q 266.536 83.402 264.836 83.402 Q 261.166 83.402 259.645 83.76 L 259.645 101.122 L 262.24 101.122 Z " fill="rgb(255,255,255)"/><path d=" M 291.259 131.373 Q 291.259 128.061 292.959 126.361 Q 294.749 124.66 297.613 124.66 Q 300.746 124.66 302.446 126.361 Q 304.146 128.061 304.146 131.373 Q 304.146 134.595 302.357 136.385 Q 300.656 138.175 297.613 138.175 Q 294.66 138.175 292.959 136.385 Q 291.259 134.595 291.259 131.373 L 291.259 131.373 Z " fill="rgb(255,255,255)"/><path d=" M 357.525 137.19 L 324.232 137.19 L 324.232 74.541 L 335.509 74.541 L 335.509 126.808 L 357.525 126.808 L 357.525 137.19 Z " fill="rgb(255,255,255)"/><path d=" M 362.88 92.441 L 373.53 92.441 L 373.53 137.19 L 362.88 137.19 L 362.88 92.441 Z  M 361.627 79.822 Q 361.627 77.137 363.327 75.436 Q 365.028 73.646 368.16 73.646 Q 371.293 73.646 373.172 75.347 Q 375.052 77.047 375.052 79.822 Q 375.052 82.596 373.172 84.207 Q 371.293 85.818 368.16 85.818 Q 365.028 85.818 363.327 84.207 Q 361.627 82.507 361.627 79.822 L 361.627 79.822 Z " fill="rgb(255,255,255)"/><path d=" M 395.691 115.8 L 396.765 122.871 L 397.123 122.871 L 398.108 115.711 L 403.656 92.441 L 415.112 92.441 L 400.076 137.638 L 392.917 137.638 L 377.075 92.441 L 389.516 92.441 L 395.691 115.8 Z " fill="rgb(255,255,255)"/><path d=" M 438.869 103.002 Q 436.721 102.196 434.931 102.196 Q 432.514 102.196 430.724 103.539 Q 429.024 104.881 428.397 107.298 L 428.397 137.19 L 417.747 137.19 L 417.747 92.441 L 425.891 92.441 L 427.144 97.811 L 427.502 97.811 Q 428.666 94.857 430.814 93.246 Q 433.051 91.546 435.915 91.546 Q 438.063 91.546 440.122 92.441 L 438.869 103.002 Z " fill="rgb(255,255,255)"/><path d=" M 442.356 114.816 Q 442.356 102.912 447.01 97.095 Q 451.664 91.277 459.988 91.277 Q 468.937 91.277 473.323 97.184 Q 477.708 103.091 477.708 114.816 Q 477.708 126.808 473.054 132.626 Q 468.4 138.354 459.988 138.354 Q 442.356 138.354 442.356 114.816 L 442.356 114.816 Z  M 453.365 114.816 Q 453.365 121.528 454.886 125.197 Q 456.408 128.867 459.988 128.867 Q 463.388 128.867 464.999 125.734 Q 466.7 122.513 466.7 114.816 Q 466.7 107.924 465.178 104.344 Q 463.657 100.764 459.988 100.764 Q 456.855 100.764 455.065 103.986 Q 453.365 107.119 453.365 114.816 L 453.365 114.816 Z " fill="rgb(255,255,255)"/><path d=" M 498.858 125.287 Q 498.858 123.407 497.605 122.155 Q 496.441 120.812 494.562 119.738 Q 492.682 118.575 490.535 117.411 Q 488.476 116.248 486.597 114.547 Q 484.717 112.847 483.464 110.43 Q 482.301 108.014 482.301 104.344 Q 482.301 98.079 485.702 94.678 Q 489.103 91.277 495.725 91.277 Q 499.663 91.277 503.154 92.172 Q 506.644 92.978 508.703 94.231 L 506.197 102.465 Q 504.496 101.749 502.08 101.122 Q 499.663 100.406 497.336 100.406 Q 492.951 100.406 492.951 104.076 Q 492.951 105.776 494.114 106.94 Q 495.367 108.014 497.247 109.088 Q 499.126 110.162 501.185 111.325 Q 503.333 112.489 505.212 114.279 Q 507.092 115.979 508.255 118.485 Q 509.508 120.991 509.508 124.66 Q 509.508 130.836 505.749 134.595 Q 501.99 138.354 494.562 138.354 Q 490.893 138.354 487.313 137.459 Q 483.822 136.564 481.674 135.132 L 484.628 126.54 Q 486.507 127.614 488.924 128.419 Q 491.43 129.225 494.114 129.225 Q 496.173 129.225 497.515 128.33 Q 498.858 127.345 498.858 125.287 L 498.858 125.287 Z " fill="rgb(255,255,255)"/></g></g></g></g></svg>