<?xml version="1.0" encoding="UTF-8" standalone="no"?>
<!-- Created with Inkscape (http://www.inkscape.org/) -->

<svg
   xmlns:dc="http://purl.org/dc/elements/1.1/"
   xmlns:cc="http://creativecommons.org/ns#"
   xmlns:rdf="http://www.w3.org/1999/02/22-rdf-syntax-ns#"
   xmlns:svg="http://www.w3.org/2000/svg"
   xmlns="http://www.w3.org/2000/svg"
   xmlns:sodipodi="http://sodipodi.sourceforge.net/DTD/sodipodi-0.dtd"
   xmlns:inkscape="http://www.inkscape.org/namespaces/inkscape"
   id="svg2"
   version="1.1"
   inkscape:version="0.91 r13725"
   xml:space="preserve"
   width="1039.662"
   height="216"
   viewBox="0 0 1039.662 216"
   sodipodi:docname="logo.svg"><metadata
     id="metadata8"><rdf:RDF><cc:Work
         rdf:about=""><dc:format>image/svg+xml</dc:format><dc:type
           rdf:resource="http://purl.org/dc/dcmitype/StillImage" /><dc:title></dc:title></cc:Work></rdf:RDF></metadata><defs
     id="defs6"><inkscape:path-effect
       effect="skeletal"
       id="path-effect5528"
       is_visible="true"
       pattern="m 237.51473,135.48645 c 0.48913,-0.10125 0.48913,-0.9015 0,-1.00212 -4.2365,-0.8435 -8.84962,-0.2965 -13.16125,-0.48913 -4.9625,-0.2215 -9.925,-0.6765 -14.775,-1.757 -0.288,-0.0625 -0.4005,0.34088 -0.12612,0.4295 4.41375,1.41788 8.90087,2.379 13.51225,2.75388 4.65075,0.375 9.96262,0.97487 14.55012,0.065"
       copytype="single_stretched"
       prop_scale="1"
       scale_y_rel="false"
       spacing="0"
       normal_offset="0"
       tang_offset="0"
       prop_units="false"
       vertical_pattern="false"
       fuse_tolerance="0" /><inkscape:path-effect
       effect="skeletal"
       id="path-effect5455"
       is_visible="true"
       pattern="m 237.51473,135.48645 c 0.48913,-0.10125 0.48913,-0.9015 0,-1.00212 -4.2365,-0.8435 -8.84962,-0.2965 -13.16125,-0.48913 -4.9625,-0.2215 -9.925,-0.6765 -14.775,-1.757 -0.288,-0.0625 -0.4005,0.34088 -0.12612,0.4295 4.41375,1.41788 8.90087,2.379 13.51225,2.75388 4.65075,0.375 9.96262,0.97487 14.55012,0.065"
       copytype="single_stretched"
       prop_scale="1"
       scale_y_rel="false"
       spacing="0"
       normal_offset="0"
       tang_offset="0"
       prop_units="false"
       vertical_pattern="false"
       fuse_tolerance="0" /><clipPath
       clipPathUnits="userSpaceOnUse"
       id="clipPath16"><path
         d="M 0,0 800,0 800,800 0,800 0,0 Z"
         id="path18"
         inkscape:connector-curvature="0" /></clipPath><radialGradient
       fx="0"
       fy="0"
       cx="0"
       cy="0"
       r="1"
       gradientUnits="userSpaceOnUse"
       gradientTransform="matrix(606.15247,0,0,-606.15247,400,400)"
       spreadMethod="pad"
       id="radialGradient24"><stop
         style="stop-opacity:1;stop-color:#414042"
         offset="0"
         id="stop26" /><stop
         style="stop-opacity:1;stop-color:#231f20"
         offset="1"
         id="stop28" /></radialGradient><clipPath
       clipPathUnits="userSpaceOnUse"
       id="clipPath80"><path
         d="M 0,800 800,800 800,0 0,0 0,800 Z"
         id="path82"
         inkscape:connector-curvature="0" /></clipPath><clipPath
       clipPathUnits="userSpaceOnUse"
       id="clipPath122"><path
         d="M 0,800 800,800 800,0 0,0 0,800 Z"
         id="path124"
         inkscape:connector-curvature="0" /></clipPath><clipPath
       clipPathUnits="userSpaceOnUse"
       id="clipPath146"><path
         d="M 0,800 800,800 800,0 0,0 0,800 Z"
         id="path148"
         inkscape:connector-curvature="0" /></clipPath><clipPath
       clipPathUnits="userSpaceOnUse"
       id="clipPath184"><path
         d="M 0,800 800,800 800,0 0,0 0,800 Z"
         id="path186"
         inkscape:connector-curvature="0" /></clipPath><clipPath
       clipPathUnits="userSpaceOnUse"
       id="clipPath204"><path
         d="M 0,800 800,800 800,0 0,0 0,800 Z"
         id="path206"
         inkscape:connector-curvature="0" /></clipPath><clipPath
       clipPathUnits="userSpaceOnUse"
       id="clipPath254"><path
         d="M 0,800 800,800 800,0 0,0 0,800 Z"
         id="path256"
         inkscape:connector-curvature="0" /></clipPath><clipPath
       clipPathUnits="userSpaceOnUse"
       id="clipPath286"><path
         d="M 0,800 800,800 800,0 0,0 0,800 Z"
         id="path288"
         inkscape:connector-curvature="0" /></clipPath><clipPath
       id="clipPath3787"
       clipPathUnits="userSpaceOnUse"><path
         inkscape:connector-curvature="0"
         id="path3789"
         d="M 0,800 800,800 800,0 0,0 0,800 Z" /></clipPath><clipPath
       id="clipPath3795"
       clipPathUnits="userSpaceOnUse"><path
         inkscape:connector-curvature="0"
         id="path3797"
         d="m 70.2148,723.369 120.2792,0 0,-156.809 -120.2792,0 0,156.809 z" /></clipPath><clipPath
       id="clipPath3799"
       clipPathUnits="userSpaceOnUse"><path
         inkscape:connector-curvature="0"
         id="path3801"
         d="m 89.748,703.836 100.746,0 0,-137.276 -100.746,0 0,137.276 z" /></clipPath><clipPath
       id="clipPath3803"
       clipPathUnits="userSpaceOnUse"><path
         inkscape:connector-curvature="0"
         id="path3805"
         d="m 87.9722,705.612 100.7458,0 0,-137.277 -100.7458,0 0,137.277 z" /></clipPath><clipPath
       id="clipPath3807"
       clipPathUnits="userSpaceOnUse"><path
         inkscape:connector-curvature="0"
         id="path3809"
         d="m 86.1968,707.387 100.7462,0 0,-137.276 -100.7462,0 0,137.276 z" /></clipPath><clipPath
       id="clipPath3811"
       clipPathUnits="userSpaceOnUse"><path
         inkscape:connector-curvature="0"
         id="path3813"
         d="m 84.4209,709.163 100.7461,0 0,-137.276 -100.7461,0 0,137.276 z" /></clipPath><clipPath
       id="clipPath3815"
       clipPathUnits="userSpaceOnUse"><path
         inkscape:connector-curvature="0"
         id="path3817"
         d="m 82.645,710.939 100.746,0 0,-137.276 -100.746,0 0,137.276 z" /></clipPath><clipPath
       id="clipPath3819"
       clipPathUnits="userSpaceOnUse"><path
         inkscape:connector-curvature="0"
         id="path3821"
         d="m 80.8691,712.715 100.7459,0 0,-137.277 -100.7459,0 0,137.277 z" /></clipPath><clipPath
       id="clipPath3823"
       clipPathUnits="userSpaceOnUse"><path
         inkscape:connector-curvature="0"
         id="path3825"
         d="m 79.0937,714.49 100.7463,0 0,-137.276 -100.7463,0 0,137.276 z" /></clipPath><clipPath
       id="clipPath3827"
       clipPathUnits="userSpaceOnUse"><path
         inkscape:connector-curvature="0"
         id="path3829"
         d="m 77.3179,716.266 100.7461,0 0,-137.276 -100.7461,0 0,137.276 z" /></clipPath><clipPath
       id="clipPath3831"
       clipPathUnits="userSpaceOnUse"><path
         inkscape:connector-curvature="0"
         id="path3833"
         d="m 75.542,718.042 100.746,0 0,-137.276 -100.746,0 0,137.276 z" /></clipPath><clipPath
       id="clipPath3835"
       clipPathUnits="userSpaceOnUse"><path
         inkscape:connector-curvature="0"
         id="path3837"
         d="m 73.7661,719.818 100.7459,0 0,-137.276 -100.7459,0 0,137.276 z" /></clipPath><clipPath
       id="clipPath3839"
       clipPathUnits="userSpaceOnUse"><path
         inkscape:connector-curvature="0"
         id="path3841"
         d="m 71.9907,721.593 100.7463,0 0,-137.276 -100.7463,0 0,137.276 z" /></clipPath><clipPath
       id="clipPath3843"
       clipPathUnits="userSpaceOnUse"><path
         inkscape:connector-curvature="0"
         id="path3845"
         d="m 70.2148,723.369 100.7462,0 0,-137.276 -100.7462,0 0,137.276 z" /></clipPath><clipPath
       id="clipPath4195"
       clipPathUnits="userSpaceOnUse"><path
         inkscape:connector-curvature="0"
         id="path4197"
         d="m 77.6489,712.787 28.4321,0 0,-50.33 -28.4321,0 0,50.33 z" /></clipPath><clipPath
       id="clipPath4219"
       clipPathUnits="userSpaceOnUse"><path
         inkscape:connector-curvature="0"
         id="path4221"
         d="m 101.806,664.674 37.931,0 0,-18.249 -37.931,0 0,18.249 z" /></clipPath><clipPath
       id="clipPath4243"
       clipPathUnits="userSpaceOnUse"><path
         inkscape:connector-curvature="0"
         id="path4245"
         d="m 136.287,723.376 19.838,0 0,-38.152 -19.838,0 0,38.152 z" /></clipPath><clipPath
       id="clipPath4267"
       clipPathUnits="userSpaceOnUse"><path
         inkscape:connector-curvature="0"
         id="path4269"
         d="m 90.771,623.327 18.345,0 0,-37.247 -18.345,0 0,37.247 z" /></clipPath><clipPath
       id="clipPath4291"
       clipPathUnits="userSpaceOnUse"><path
         inkscape:connector-curvature="0"
         id="path4293"
         d="m 138.294,630.623 32.667,0 0,-29.086 -32.667,0 0,29.086 z" /></clipPath><clipPath
       id="clipPath4311"
       clipPathUnits="userSpaceOnUse"><path
         inkscape:connector-curvature="0"
         id="path4313"
         d="m 244.118,724.364 154.708,0 0,-154.708 -154.708,0 0,154.708 z" /></clipPath><clipPath
       id="clipPath4315"
       clipPathUnits="userSpaceOnUse"><path
         inkscape:connector-curvature="0"
         id="path4317"
         d="m 263.651,704.831 135.175,0 0,-135.175 -135.175,0 0,135.175 z" /></clipPath><clipPath
       id="clipPath4319"
       clipPathUnits="userSpaceOnUse"><path
         inkscape:connector-curvature="0"
         id="path4321"
         d="m 261.875,706.606 135.175,0 0,-135.174 -135.175,0 0,135.174 z" /></clipPath><clipPath
       id="clipPath4323"
       clipPathUnits="userSpaceOnUse"><path
         inkscape:connector-curvature="0"
         id="path4325"
         d="m 260.1,708.382 135.175,0 0,-135.175 -135.175,0 0,135.175 z" /></clipPath><clipPath
       id="clipPath4327"
       clipPathUnits="userSpaceOnUse"><path
         inkscape:connector-curvature="0"
         id="path4329"
         d="m 258.324,710.158 135.175,0 0,-135.175 -135.175,0 0,135.175 z" /></clipPath><clipPath
       id="clipPath4331"
       clipPathUnits="userSpaceOnUse"><path
         inkscape:connector-curvature="0"
         id="path4333"
         d="m 256.548,711.934 135.175,0 0,-135.175 -135.175,0 0,135.175 z" /></clipPath><clipPath
       id="clipPath4335"
       clipPathUnits="userSpaceOnUse"><path
         inkscape:connector-curvature="0"
         id="path4337"
         d="m 254.772,713.709 135.176,0 0,-135.174 -135.176,0 0,135.174 z" /></clipPath><clipPath
       id="clipPath4339"
       clipPathUnits="userSpaceOnUse"><path
         inkscape:connector-curvature="0"
         id="path4341"
         d="m 252.997,715.485 135.175,0 0,-135.175 -135.175,0 0,135.175 z" /></clipPath><clipPath
       id="clipPath4343"
       clipPathUnits="userSpaceOnUse"><path
         inkscape:connector-curvature="0"
         id="path4345"
         d="m 251.221,717.261 135.175,0 0,-135.175 -135.175,0 0,135.175 z" /></clipPath><clipPath
       id="clipPath4347"
       clipPathUnits="userSpaceOnUse"><path
         inkscape:connector-curvature="0"
         id="path4349"
         d="m 249.445,719.037 135.176,0 0,-135.175 -135.176,0 0,135.175 z" /></clipPath><clipPath
       id="clipPath4351"
       clipPathUnits="userSpaceOnUse"><path
         inkscape:connector-curvature="0"
         id="path4353"
         d="m 247.669,720.812 135.176,0 0,-135.174 -135.176,0 0,135.174 z" /></clipPath><clipPath
       id="clipPath4355"
       clipPathUnits="userSpaceOnUse"><path
         inkscape:connector-curvature="0"
         id="path4357"
         d="m 245.894,722.588 135.175,0 0,-135.175 -135.175,0 0,135.175 z" /></clipPath><clipPath
       id="clipPath4359"
       clipPathUnits="userSpaceOnUse"><path
         inkscape:connector-curvature="0"
         id="path4361"
         d="m 244.118,724.364 135.175,0 0,-135.175 -135.175,0 0,135.175 z" /></clipPath><clipPath
       id="clipPath4523"
       clipPathUnits="userSpaceOnUse"><path
         inkscape:connector-curvature="0"
         id="path4525"
         d="m 272.309,696.721 106.179,0 0,-83.831 -106.179,0 0,83.831 z" /></clipPath><clipPath
       id="clipPath4559"
       clipPathUnits="userSpaceOnUse"><path
         inkscape:connector-curvature="0"
         id="path4561"
         d="m 311.706,636.332 3.468,0 0,-3.164 -3.468,0 0,3.164 z" /></clipPath><clipPath
       id="clipPath4575"
       clipPathUnits="userSpaceOnUse"><path
         inkscape:connector-curvature="0"
         id="path4577"
         d="m 323.536,647.864 6.038,0 0,-4.941 -6.038,0 0,4.941 z" /></clipPath><clipPath
       id="clipPath4591"
       clipPathUnits="userSpaceOnUse"><path
         inkscape:connector-curvature="0"
         id="path4593"
         d="m 329.574,662.915 6.037,0 0,-5.698 -6.037,0 0,5.698 z" /></clipPath><clipPath
       id="clipPath4607"
       clipPathUnits="userSpaceOnUse"><path
         inkscape:connector-curvature="0"
         id="path4609"
         d="m 640.274,531.866 154.708,0 0,-154.708 -154.708,0 0,154.708 z" /></clipPath><clipPath
       id="clipPath4611"
       clipPathUnits="userSpaceOnUse"><path
         inkscape:connector-curvature="0"
         id="path4613"
         d="m 659.808,512.333 135.174,0 0,-135.175 -135.174,0 0,135.175 z" /></clipPath><clipPath
       id="clipPath4615"
       clipPathUnits="userSpaceOnUse"><path
         inkscape:connector-curvature="0"
         id="path4617"
         d="m 658.032,514.108 135.175,0 0,-135.174 -135.175,0 0,135.174 z" /></clipPath><clipPath
       id="clipPath4619"
       clipPathUnits="userSpaceOnUse"><path
         inkscape:connector-curvature="0"
         id="path4621"
         d="m 656.256,515.884 135.175,0 0,-135.174 -135.175,0 0,135.174 z" /></clipPath><clipPath
       id="clipPath4623"
       clipPathUnits="userSpaceOnUse"><path
         inkscape:connector-curvature="0"
         id="path4625"
         d="m 654.48,517.66 135.175,0 0,-135.175 -135.175,0 0,135.175 z" /></clipPath><clipPath
       id="clipPath4627"
       clipPathUnits="userSpaceOnUse"><path
         inkscape:connector-curvature="0"
         id="path4629"
         d="m 652.705,519.436 135.175,0 0,-135.175 -135.175,0 0,135.175 z" /></clipPath><clipPath
       id="clipPath4631"
       clipPathUnits="userSpaceOnUse"><path
         inkscape:connector-curvature="0"
         id="path4633"
         d="m 650.929,521.211 135.175,0 0,-135.174 -135.175,0 0,135.174 z" /></clipPath><clipPath
       id="clipPath4635"
       clipPathUnits="userSpaceOnUse"><path
         inkscape:connector-curvature="0"
         id="path4637"
         d="m 649.153,522.987 135.175,0 0,-135.175 -135.175,0 0,135.175 z" /></clipPath><clipPath
       id="clipPath4639"
       clipPathUnits="userSpaceOnUse"><path
         inkscape:connector-curvature="0"
         id="path4641"
         d="m 647.377,524.763 135.175,0 0,-135.174 -135.175,0 0,135.174 z" /></clipPath><clipPath
       id="clipPath4643"
       clipPathUnits="userSpaceOnUse"><path
         inkscape:connector-curvature="0"
         id="path4645"
         d="m 645.602,526.539 135.174,0 0,-135.175 -135.174,0 0,135.175 z" /></clipPath><clipPath
       id="clipPath4647"
       clipPathUnits="userSpaceOnUse"><path
         inkscape:connector-curvature="0"
         id="path4649"
         d="m 643.826,528.314 135.175,0 0,-135.174 -135.175,0 0,135.174 z" /></clipPath><clipPath
       id="clipPath4651"
       clipPathUnits="userSpaceOnUse"><path
         inkscape:connector-curvature="0"
         id="path4653"
         d="m 642.05,530.09 135.175,0 0,-135.174 -135.175,0 0,135.174 z" /></clipPath><clipPath
       id="clipPath4655"
       clipPathUnits="userSpaceOnUse"><path
         inkscape:connector-curvature="0"
         id="path4657"
         d="m 640.274,531.866 135.175,0 0,-135.175 -135.175,0 0,135.175 z" /></clipPath><clipPath
       id="clipPath4819"
       clipPathUnits="userSpaceOnUse"><path
         inkscape:connector-curvature="0"
         id="path4821"
         d="m 668.465,504.223 106.18,0 0,-83.831 -106.18,0 0,83.831 z" /></clipPath><clipPath
       id="clipPath4859"
       clipPathUnits="userSpaceOnUse"><path
         inkscape:connector-curvature="0"
         id="path4861"
         d="m 715.39,447.391 3.466,0 0,-3.163 -3.466,0 0,3.163 z" /></clipPath><clipPath
       id="clipPath4875"
       clipPathUnits="userSpaceOnUse"><path
         inkscape:connector-curvature="0"
         id="path4877"
         d="m 708.148,464.778 6.039,0 0,-4.941 -6.039,0 0,4.941 z" /></clipPath><clipPath
       id="clipPath4891"
       clipPathUnits="userSpaceOnUse"><path
         inkscape:connector-curvature="0"
         id="path4893"
         d="m 730.259,468.006 6.038,0 0,-5.698 -6.038,0 0,5.698 z" /></clipPath><clipPath
       id="clipPath4907"
       clipPathUnits="userSpaceOnUse"><path
         inkscape:connector-curvature="0"
         id="path4909"
         d="m 476.719,756.832 134.686,0 0,-180.757 -134.686,0 0,180.757 z" /></clipPath><clipPath
       id="clipPath4911"
       clipPathUnits="userSpaceOnUse"><path
         inkscape:connector-curvature="0"
         id="path4913"
         d="m 496.252,737.298 115.153,0 0,-161.223 -115.153,0 0,161.223 z" /></clipPath><clipPath
       id="clipPath4915"
       clipPathUnits="userSpaceOnUse"><path
         inkscape:connector-curvature="0"
         id="path4917"
         d="m 545.192,734.711 12.361,0 0,-71.315 -12.361,0 0,71.315 z" /></clipPath><clipPath
       id="clipPath4919"
       clipPathUnits="userSpaceOnUse"><path
         inkscape:connector-curvature="0"
         id="path4921"
         d="m 526.716,737.298 12.362,0 0,-71.315 -12.362,0 0,71.315 z" /></clipPath><clipPath
       id="clipPath4923"
       clipPathUnits="userSpaceOnUse"><path
         inkscape:connector-curvature="0"
         id="path4925"
         d="m 494.477,739.074 115.153,0 0,-161.223 -115.153,0 0,161.223 z" /></clipPath><clipPath
       id="clipPath4927"
       clipPathUnits="userSpaceOnUse"><path
         inkscape:connector-curvature="0"
         id="path4929"
         d="m 543.417,736.487 12.36,0 0,-71.315 -12.36,0 0,71.315 z" /></clipPath><clipPath
       id="clipPath4931"
       clipPathUnits="userSpaceOnUse"><path
         inkscape:connector-curvature="0"
         id="path4933"
         d="m 524.94,739.074 12.363,0 0,-71.315 -12.363,0 0,71.315 z" /></clipPath><clipPath
       id="clipPath4935"
       clipPathUnits="userSpaceOnUse"><path
         inkscape:connector-curvature="0"
         id="path4937"
         d="m 492.7,740.85 115.154,0 0,-161.224 -115.154,0 0,161.224 z" /></clipPath><clipPath
       id="clipPath4939"
       clipPathUnits="userSpaceOnUse"><path
         inkscape:connector-curvature="0"
         id="path4941"
         d="m 541.641,738.263 12.36,0 0,-71.315 -12.36,0 0,71.315 z" /></clipPath><clipPath
       id="clipPath4943"
       clipPathUnits="userSpaceOnUse"><path
         inkscape:connector-curvature="0"
         id="path4945"
         d="m 523.164,740.85 12.362,0 0,-71.316 -12.362,0 0,71.316 z" /></clipPath><clipPath
       id="clipPath4947"
       clipPathUnits="userSpaceOnUse"><path
         inkscape:connector-curvature="0"
         id="path4949"
         d="m 490.925,742.625 115.153,0 0,-161.223 -115.153,0 0,161.223 z" /></clipPath><clipPath
       id="clipPath4951"
       clipPathUnits="userSpaceOnUse"><path
         inkscape:connector-curvature="0"
         id="path4953"
         d="m 539.865,740.039 12.361,0 0,-71.315 -12.361,0 0,71.315 z" /></clipPath><clipPath
       id="clipPath4955"
       clipPathUnits="userSpaceOnUse"><path
         inkscape:connector-curvature="0"
         id="path4957"
         d="m 521.389,742.625 12.362,0 0,-71.315 -12.362,0 0,71.315 z" /></clipPath><clipPath
       id="clipPath4959"
       clipPathUnits="userSpaceOnUse"><path
         inkscape:connector-curvature="0"
         id="path4961"
         d="m 489.149,744.401 115.154,0 0,-161.223 -115.154,0 0,161.223 z" /></clipPath><clipPath
       id="clipPath4963"
       clipPathUnits="userSpaceOnUse"><path
         inkscape:connector-curvature="0"
         id="path4965"
         d="m 538.09,741.814 12.36,0 0,-71.314 -12.36,0 0,71.314 z" /></clipPath><clipPath
       id="clipPath4967"
       clipPathUnits="userSpaceOnUse"><path
         inkscape:connector-curvature="0"
         id="path4969"
         d="m 519.613,744.401 12.363,0 0,-71.315 -12.363,0 0,71.315 z" /></clipPath><clipPath
       id="clipPath4971"
       clipPathUnits="userSpaceOnUse"><path
         inkscape:connector-curvature="0"
         id="path4973"
         d="m 487.373,746.177 115.153,0 0,-161.223 -115.153,0 0,161.223 z" /></clipPath><clipPath
       id="clipPath4975"
       clipPathUnits="userSpaceOnUse"><path
         inkscape:connector-curvature="0"
         id="path4977"
         d="m 536.313,743.59 12.361,0 0,-71.315 -12.361,0 0,71.315 z" /></clipPath><clipPath
       id="clipPath4979"
       clipPathUnits="userSpaceOnUse"><path
         inkscape:connector-curvature="0"
         id="path4981"
         d="m 517.837,746.177 12.362,0 0,-71.315 -12.362,0 0,71.315 z" /></clipPath><clipPath
       id="clipPath4983"
       clipPathUnits="userSpaceOnUse"><path
         inkscape:connector-curvature="0"
         id="path4985"
         d="m 485.598,747.953 115.153,0 0,-161.224 -115.153,0 0,161.224 z" /></clipPath><clipPath
       id="clipPath4987"
       clipPathUnits="userSpaceOnUse"><path
         inkscape:connector-curvature="0"
         id="path4989"
         d="m 534.538,745.366 12.36,0 0,-71.315 -12.36,0 0,71.315 z" /></clipPath><clipPath
       id="clipPath4991"
       clipPathUnits="userSpaceOnUse"><path
         inkscape:connector-curvature="0"
         id="path4993"
         d="m 516.062,747.953 12.362,0 0,-71.316 -12.362,0 0,71.316 z" /></clipPath><clipPath
       id="clipPath4995"
       clipPathUnits="userSpaceOnUse"><path
         inkscape:connector-curvature="0"
         id="path4997"
         d="m 483.821,749.729 115.154,0 0,-161.224 -115.154,0 0,161.224 z" /></clipPath><clipPath
       id="clipPath4999"
       clipPathUnits="userSpaceOnUse"><path
         inkscape:connector-curvature="0"
         id="path5001"
         d="m 532.762,747.142 12.36,0 0,-71.315 -12.36,0 0,71.315 z" /></clipPath><clipPath
       id="clipPath5003"
       clipPathUnits="userSpaceOnUse"><path
         inkscape:connector-curvature="0"
         id="path5005"
         d="m 514.285,749.729 12.362,0 0,-71.316 -12.362,0 0,71.316 z" /></clipPath><clipPath
       id="clipPath5007"
       clipPathUnits="userSpaceOnUse"><path
         inkscape:connector-curvature="0"
         id="path5009"
         d="m 482.046,751.504 115.153,0 0,-161.223 -115.153,0 0,161.223 z" /></clipPath><clipPath
       id="clipPath5011"
       clipPathUnits="userSpaceOnUse"><path
         inkscape:connector-curvature="0"
         id="path5013"
         d="m 530.986,748.917 12.361,0 0,-71.314 -12.361,0 0,71.314 z" /></clipPath><clipPath
       id="clipPath5015"
       clipPathUnits="userSpaceOnUse"><path
         inkscape:connector-curvature="0"
         id="path5017"
         d="m 512.51,751.504 12.362,0 0,-71.315 -12.362,0 0,71.315 z" /></clipPath><clipPath
       id="clipPath5019"
       clipPathUnits="userSpaceOnUse"><path
         inkscape:connector-curvature="0"
         id="path5021"
         d="m 480.271,753.28 115.153,0 0,-161.223 -115.153,0 0,161.223 z" /></clipPath><clipPath
       id="clipPath5023"
       clipPathUnits="userSpaceOnUse"><path
         inkscape:connector-curvature="0"
         id="path5025"
         d="m 529.211,750.693 12.36,0 0,-71.315 -12.36,0 0,71.315 z" /></clipPath><clipPath
       id="clipPath5027"
       clipPathUnits="userSpaceOnUse"><path
         inkscape:connector-curvature="0"
         id="path5029"
         d="m 510.734,753.28 12.363,0 0,-71.315 -12.363,0 0,71.315 z" /></clipPath><clipPath
       id="clipPath5031"
       clipPathUnits="userSpaceOnUse"><path
         inkscape:connector-curvature="0"
         id="path5033"
         d="m 478.494,755.056 115.153,0 0,-161.224 -115.153,0 0,161.224 z" /></clipPath><clipPath
       id="clipPath5035"
       clipPathUnits="userSpaceOnUse"><path
         inkscape:connector-curvature="0"
         id="path5037"
         d="m 527.435,752.469 12.36,0 0,-71.315 -12.36,0 0,71.315 z" /></clipPath><clipPath
       id="clipPath5039"
       clipPathUnits="userSpaceOnUse"><path
         inkscape:connector-curvature="0"
         id="path5041"
         d="m 508.958,755.056 12.362,0 0,-71.316 -12.362,0 0,71.316 z" /></clipPath><clipPath
       id="clipPath5043"
       clipPathUnits="userSpaceOnUse"><path
         inkscape:connector-curvature="0"
         id="path5045"
         d="m 525.659,754.245 12.361,0 0,-71.315 -12.361,0 0,71.315 z" /></clipPath><clipPath
       id="clipPath5047"
       clipPathUnits="userSpaceOnUse"><path
         inkscape:connector-curvature="0"
         id="path5049"
         d="m 507.183,756.832 12.362,0 0,-71.316 -12.362,0 0,71.316 z" /></clipPath><clipPath
       id="clipPath5511"
       clipPathUnits="userSpaceOnUse"><path
         inkscape:connector-curvature="0"
         id="path5513"
         d="m 660.813,723.419 105.198,0 0,-135.621 -105.198,0 0,135.621 z" /></clipPath><clipPath
       id="clipPath5515"
       clipPathUnits="userSpaceOnUse"><path
         inkscape:connector-curvature="0"
         id="path5517"
         d="m 680.347,703.886 85.664,0 0,-116.088 -85.664,0 0,116.088 z" /></clipPath><clipPath
       id="clipPath5519"
       clipPathUnits="userSpaceOnUse"><path
         inkscape:connector-curvature="0"
         id="path5521"
         d="m 680.347,703.886 85.664,0 0,-17.205 -85.664,0 0,17.205 z" /></clipPath><clipPath
       id="clipPath5523"
       clipPathUnits="userSpaceOnUse"><path
         inkscape:connector-curvature="0"
         id="path5525"
         d="m 684.332,684.326 77.693,0 0,-96.528 -77.693,0 0,96.528 z" /></clipPath><clipPath
       id="clipPath5527"
       clipPathUnits="userSpaceOnUse"><path
         inkscape:connector-curvature="0"
         id="path5529"
         d="m 678.571,705.662 85.664,0 0,-116.088 -85.664,0 0,116.088 z" /></clipPath><clipPath
       id="clipPath5531"
       clipPathUnits="userSpaceOnUse"><path
         inkscape:connector-curvature="0"
         id="path5533"
         d="m 678.571,705.662 85.664,0 0,-17.205 -85.664,0 0,17.205 z" /></clipPath><clipPath
       id="clipPath5535"
       clipPathUnits="userSpaceOnUse"><path
         inkscape:connector-curvature="0"
         id="path5537"
         d="m 682.557,686.102 77.693,0 0,-96.528 -77.693,0 0,96.528 z" /></clipPath><clipPath
       id="clipPath5539"
       clipPathUnits="userSpaceOnUse"><path
         inkscape:connector-curvature="0"
         id="path5541"
         d="m 676.795,707.437 85.664,0 0,-116.088 -85.664,0 0,116.088 z" /></clipPath><clipPath
       id="clipPath5543"
       clipPathUnits="userSpaceOnUse"><path
         inkscape:connector-curvature="0"
         id="path5545"
         d="m 676.795,707.437 85.664,0 0,-17.205 -85.664,0 0,17.205 z" /></clipPath><clipPath
       id="clipPath5547"
       clipPathUnits="userSpaceOnUse"><path
         inkscape:connector-curvature="0"
         id="path5549"
         d="m 680.78,687.877 77.694,0 0,-96.528 -77.694,0 0,96.528 z" /></clipPath><clipPath
       id="clipPath5551"
       clipPathUnits="userSpaceOnUse"><path
         inkscape:connector-curvature="0"
         id="path5553"
         d="m 675.02,709.213 85.664,0 0,-116.088 -85.664,0 0,116.088 z" /></clipPath><clipPath
       id="clipPath5555"
       clipPathUnits="userSpaceOnUse"><path
         inkscape:connector-curvature="0"
         id="path5557"
         d="m 675.02,709.213 85.664,0 0,-17.205 -85.664,0 0,17.205 z" /></clipPath><clipPath
       id="clipPath5559"
       clipPathUnits="userSpaceOnUse"><path
         inkscape:connector-curvature="0"
         id="path5561"
         d="m 679.005,689.653 77.693,0 0,-96.528 -77.693,0 0,96.528 z" /></clipPath><clipPath
       id="clipPath5563"
       clipPathUnits="userSpaceOnUse"><path
         inkscape:connector-curvature="0"
         id="path5565"
         d="m 673.244,710.989 85.664,0 0,-116.088 -85.664,0 0,116.088 z" /></clipPath><clipPath
       id="clipPath5567"
       clipPathUnits="userSpaceOnUse"><path
         inkscape:connector-curvature="0"
         id="path5569"
         d="m 673.244,710.989 85.664,0 0,-17.205 -85.664,0 0,17.205 z" /></clipPath><clipPath
       id="clipPath5571"
       clipPathUnits="userSpaceOnUse"><path
         inkscape:connector-curvature="0"
         id="path5573"
         d="m 677.229,691.429 77.694,0 0,-96.528 -77.694,0 0,96.528 z" /></clipPath><clipPath
       id="clipPath5575"
       clipPathUnits="userSpaceOnUse"><path
         inkscape:connector-curvature="0"
         id="path5577"
         d="m 671.468,712.765 85.664,0 0,-116.088 -85.664,0 0,116.088 z" /></clipPath><clipPath
       id="clipPath5579"
       clipPathUnits="userSpaceOnUse"><path
         inkscape:connector-curvature="0"
         id="path5581"
         d="m 671.468,712.765 85.664,0 0,-17.205 -85.664,0 0,17.205 z" /></clipPath><clipPath
       id="clipPath5583"
       clipPathUnits="userSpaceOnUse"><path
         inkscape:connector-curvature="0"
         id="path5585"
         d="m 675.453,693.205 77.693,0 0,-96.528 -77.693,0 0,96.528 z" /></clipPath><clipPath
       id="clipPath5587"
       clipPathUnits="userSpaceOnUse"><path
         inkscape:connector-curvature="0"
         id="path5589"
         d="m 669.692,714.541 85.664,0 0,-116.089 -85.664,0 0,116.089 z" /></clipPath><clipPath
       id="clipPath5591"
       clipPathUnits="userSpaceOnUse"><path
         inkscape:connector-curvature="0"
         id="path5593"
         d="m 669.692,714.541 85.664,0 0,-17.206 -85.664,0 0,17.206 z" /></clipPath><clipPath
       id="clipPath5595"
       clipPathUnits="userSpaceOnUse"><path
         inkscape:connector-curvature="0"
         id="path5597"
         d="m 673.678,694.98 77.693,0 0,-96.528 -77.693,0 0,96.528 z" /></clipPath><clipPath
       id="clipPath5599"
       clipPathUnits="userSpaceOnUse"><path
         inkscape:connector-curvature="0"
         id="path5601"
         d="m 667.916,716.316 85.664,0 0,-116.088 -85.664,0 0,116.088 z" /></clipPath><clipPath
       id="clipPath5603"
       clipPathUnits="userSpaceOnUse"><path
         inkscape:connector-curvature="0"
         id="path5605"
         d="m 667.916,716.316 85.664,0 0,-17.205 -85.664,0 0,17.205 z" /></clipPath><clipPath
       id="clipPath5607"
       clipPathUnits="userSpaceOnUse"><path
         inkscape:connector-curvature="0"
         id="path5609"
         d="m 671.901,696.756 77.694,0 0,-96.528 -77.694,0 0,96.528 z" /></clipPath><clipPath
       id="clipPath5611"
       clipPathUnits="userSpaceOnUse"><path
         inkscape:connector-curvature="0"
         id="path5613"
         d="m 666.141,718.092 85.664,0 0,-116.088 -85.664,0 0,116.088 z" /></clipPath><clipPath
       id="clipPath5615"
       clipPathUnits="userSpaceOnUse"><path
         inkscape:connector-curvature="0"
         id="path5617"
         d="m 666.141,718.092 85.664,0 0,-17.205 -85.664,0 0,17.205 z" /></clipPath><clipPath
       id="clipPath5619"
       clipPathUnits="userSpaceOnUse"><path
         inkscape:connector-curvature="0"
         id="path5621"
         d="m 670.126,698.532 77.693,0 0,-96.528 -77.693,0 0,96.528 z" /></clipPath><clipPath
       id="clipPath5623"
       clipPathUnits="userSpaceOnUse"><path
         inkscape:connector-curvature="0"
         id="path5625"
         d="m 664.365,719.868 85.664,0 0,-116.088 -85.664,0 0,116.088 z" /></clipPath><clipPath
       id="clipPath5627"
       clipPathUnits="userSpaceOnUse"><path
         inkscape:connector-curvature="0"
         id="path5629"
         d="m 664.365,719.868 85.664,0 0,-17.205 -85.664,0 0,17.205 z" /></clipPath><clipPath
       id="clipPath5631"
       clipPathUnits="userSpaceOnUse"><path
         inkscape:connector-curvature="0"
         id="path5633"
         d="m 668.351,700.308 77.693,0 0,-96.528 -77.693,0 0,96.528 z" /></clipPath><clipPath
       id="clipPath5635"
       clipPathUnits="userSpaceOnUse"><path
         inkscape:connector-curvature="0"
         id="path5637"
         d="m 662.589,721.644 85.664,0 0,-116.089 -85.664,0 0,116.089 z" /></clipPath><clipPath
       id="clipPath5639"
       clipPathUnits="userSpaceOnUse"><path
         inkscape:connector-curvature="0"
         id="path5641"
         d="m 662.589,721.644 85.664,0 0,-17.206 -85.664,0 0,17.206 z" /></clipPath><clipPath
       id="clipPath5643"
       clipPathUnits="userSpaceOnUse"><path
         inkscape:connector-curvature="0"
         id="path5645"
         d="m 666.574,702.083 77.694,0 0,-96.528 -77.694,0 0,96.528 z" /></clipPath><clipPath
       id="clipPath5647"
       clipPathUnits="userSpaceOnUse"><path
         inkscape:connector-curvature="0"
         id="path5649"
         d="m 660.813,723.419 85.665,0 0,-17.205 -85.665,0 0,17.205 z" /></clipPath><clipPath
       id="clipPath5651"
       clipPathUnits="userSpaceOnUse"><path
         inkscape:connector-curvature="0"
         id="path5653"
         d="m 664.799,703.859 77.693,0 0,-96.528 -77.693,0 0,96.528 z" /></clipPath><clipPath
       id="clipPath6075"
       clipPathUnits="userSpaceOnUse"><path
         inkscape:connector-curvature="0"
         id="path6077"
         d="m 699.22,669.223 12.658,0 0,-19.035 -12.658,0 0,19.035 z" /></clipPath><clipPath
       id="clipPath6095"
       clipPathUnits="userSpaceOnUse"><path
         inkscape:connector-curvature="0"
         id="path6097"
         d="m 47.9414,537.631 223.4926,0 0,-160.473 -223.4926,0 0,160.473 z" /></clipPath><clipPath
       id="clipPath6099"
       clipPathUnits="userSpaceOnUse"><path
         inkscape:connector-curvature="0"
         id="path6101"
         d="m 67.4746,518.098 203.9594,0 0,-140.94 -203.9594,0 0,140.94 z" /></clipPath><clipPath
       id="clipPath6103"
       clipPathUnits="userSpaceOnUse"><path
         inkscape:connector-curvature="0"
         id="path6105"
         d="m 65.6987,519.874 203.9593,0 0,-140.94 -203.9593,0 0,140.94 z" /></clipPath><clipPath
       id="clipPath6107"
       clipPathUnits="userSpaceOnUse"><path
         inkscape:connector-curvature="0"
         id="path6109"
         d="m 63.9233,521.649 203.9587,0 0,-140.939 -203.9587,0 0,140.939 z" /></clipPath><clipPath
       id="clipPath6111"
       clipPathUnits="userSpaceOnUse"><path
         inkscape:connector-curvature="0"
         id="path6113"
         d="m 62.1475,523.425 203.9585,0 0,-140.94 -203.9585,0 0,140.94 z" /></clipPath><clipPath
       id="clipPath6115"
       clipPathUnits="userSpaceOnUse"><path
         inkscape:connector-curvature="0"
         id="path6117"
         d="m 60.3716,525.201 203.9594,0 0,-140.94 -203.9594,0 0,140.94 z" /></clipPath><clipPath
       id="clipPath6119"
       clipPathUnits="userSpaceOnUse"><path
         inkscape:connector-curvature="0"
         id="path6121"
         d="m 58.5957,526.977 203.9593,0 0,-140.94 -203.9593,0 0,140.94 z" /></clipPath><clipPath
       id="clipPath6123"
       clipPathUnits="userSpaceOnUse"><path
         inkscape:connector-curvature="0"
         id="path6125"
         d="m 56.8203,528.752 203.9587,0 0,-140.94 -203.9587,0 0,140.94 z" /></clipPath><clipPath
       id="clipPath6127"
       clipPathUnits="userSpaceOnUse"><path
         inkscape:connector-curvature="0"
         id="path6129"
         d="m 55.0444,530.528 203.9586,0 0,-140.939 -203.9586,0 0,140.939 z" /></clipPath><clipPath
       id="clipPath6131"
       clipPathUnits="userSpaceOnUse"><path
         inkscape:connector-curvature="0"
         id="path6133"
         d="m 53.2686,532.304 203.9594,0 0,-140.94 -203.9594,0 0,140.94 z" /></clipPath><clipPath
       id="clipPath6135"
       clipPathUnits="userSpaceOnUse"><path
         inkscape:connector-curvature="0"
         id="path6137"
         d="m 51.4927,534.08 203.9593,0 0,-140.94 -203.9593,0 0,140.94 z" /></clipPath><clipPath
       id="clipPath6139"
       clipPathUnits="userSpaceOnUse"><path
         inkscape:connector-curvature="0"
         id="path6141"
         d="m 49.7173,535.855 203.9587,0 0,-140.939 -203.9587,0 0,140.939 z" /></clipPath><clipPath
       id="clipPath6143"
       clipPathUnits="userSpaceOnUse"><path
         inkscape:connector-curvature="0"
         id="path6145"
         d="m 47.9414,537.631 203.9586,0 0,-140.94 -203.9586,0 0,140.94 z" /></clipPath><clipPath
       id="clipPath6315"
       clipPathUnits="userSpaceOnUse"><path
         inkscape:connector-curvature="0"
         id="path6317"
         d="m 472.317,531.357 149.688,0 0,-154.199 -149.688,0 0,154.199 z" /></clipPath><clipPath
       id="clipPath6319"
       clipPathUnits="userSpaceOnUse"><path
         inkscape:connector-curvature="0"
         id="path6321"
         d="m 491.851,511.824 130.154,0 0,-134.666 -130.154,0 0,134.666 z" /></clipPath><clipPath
       id="clipPath6323"
       clipPathUnits="userSpaceOnUse"><path
         inkscape:connector-curvature="0"
         id="path6325"
         d="m 490.075,513.6 130.154,0 0,-134.666 -130.154,0 0,134.666 z" /></clipPath><clipPath
       id="clipPath6327"
       clipPathUnits="userSpaceOnUse"><path
         inkscape:connector-curvature="0"
         id="path6329"
         d="m 488.299,515.375 130.154,0 0,-134.665 -130.154,0 0,134.665 z" /></clipPath><clipPath
       id="clipPath6331"
       clipPathUnits="userSpaceOnUse"><path
         inkscape:connector-curvature="0"
         id="path6333"
         d="m 486.523,517.151 130.155,0 0,-134.666 -130.155,0 0,134.666 z" /></clipPath><clipPath
       id="clipPath6335"
       clipPathUnits="userSpaceOnUse"><path
         inkscape:connector-curvature="0"
         id="path6337"
         d="m 484.748,518.927 130.154,0 0,-134.666 -130.154,0 0,134.666 z" /></clipPath><clipPath
       id="clipPath6339"
       clipPathUnits="userSpaceOnUse"><path
         inkscape:connector-curvature="0"
         id="path6341"
         d="m 482.972,520.703 130.154,0 0,-134.666 -130.154,0 0,134.666 z" /></clipPath><clipPath
       id="clipPath6343"
       clipPathUnits="userSpaceOnUse"><path
         inkscape:connector-curvature="0"
         id="path6345"
         d="m 481.196,522.479 130.155,0 0,-134.667 -130.155,0 0,134.667 z" /></clipPath><clipPath
       id="clipPath6347"
       clipPathUnits="userSpaceOnUse"><path
         inkscape:connector-curvature="0"
         id="path6349"
         d="m 479.42,524.254 130.154,0 0,-134.665 -130.154,0 0,134.665 z" /></clipPath><clipPath
       id="clipPath6351"
       clipPathUnits="userSpaceOnUse"><path
         inkscape:connector-curvature="0"
         id="path6353"
         d="m 477.645,526.03 130.154,0 0,-134.666 -130.154,0 0,134.666 z" /></clipPath><clipPath
       id="clipPath6355"
       clipPathUnits="userSpaceOnUse"><path
         inkscape:connector-curvature="0"
         id="path6357"
         d="m 475.869,527.806 130.154,0 0,-134.666 -130.154,0 0,134.666 z" /></clipPath><clipPath
       id="clipPath6359"
       clipPathUnits="userSpaceOnUse"><path
         inkscape:connector-curvature="0"
         id="path6361"
         d="m 474.093,529.582 130.154,0 0,-134.666 -130.154,0 0,134.666 z" /></clipPath><clipPath
       id="clipPath6535"
       clipPathUnits="userSpaceOnUse"><path
         inkscape:connector-curvature="0"
         id="path6537"
         d="m 269.529,557.382 135.574,0 0,-180.224 -135.574,0 0,180.224 z" /></clipPath><clipPath
       id="clipPath6539"
       clipPathUnits="userSpaceOnUse"><path
         inkscape:connector-curvature="0"
         id="path6541"
         d="m 289.062,537.849 116.041,0 0,-160.691 -116.041,0 0,160.691 z" /></clipPath><clipPath
       id="clipPath6543"
       clipPathUnits="userSpaceOnUse"><path
         inkscape:connector-curvature="0"
         id="path6545"
         d="m 289.062,466.702 112.354,0 0,-89.544 -112.354,0 0,89.544 z" /></clipPath><clipPath
       id="clipPath6547"
       clipPathUnits="userSpaceOnUse"><path
         inkscape:connector-curvature="0"
         id="path6549"
         d="m 311.266,537.849 93.837,0 0,-71.147 -93.837,0 0,71.147 z" /></clipPath><clipPath
       id="clipPath6551"
       clipPathUnits="userSpaceOnUse"><path
         inkscape:connector-curvature="0"
         id="path6553"
         d="m 287.287,539.625 116.04,0 0,-160.691 -116.04,0 0,160.691 z" /></clipPath><clipPath
       id="clipPath6555"
       clipPathUnits="userSpaceOnUse"><path
         inkscape:connector-curvature="0"
         id="path6557"
         d="m 287.287,468.478 112.353,0 0,-89.544 -112.353,0 0,89.544 z" /></clipPath><clipPath
       id="clipPath6559"
       clipPathUnits="userSpaceOnUse"><path
         inkscape:connector-curvature="0"
         id="path6561"
         d="m 309.49,539.625 93.837,0 0,-71.147 -93.837,0 0,71.147 z" /></clipPath><clipPath
       id="clipPath6563"
       clipPathUnits="userSpaceOnUse"><path
         inkscape:connector-curvature="0"
         id="path6565"
         d="m 285.511,541.4 116.04,0 0,-160.69 -116.04,0 0,160.69 z" /></clipPath><clipPath
       id="clipPath6567"
       clipPathUnits="userSpaceOnUse"><path
         inkscape:connector-curvature="0"
         id="path6569"
         d="m 285.511,470.253 112.354,0 0,-89.543 -112.354,0 0,89.543 z" /></clipPath><clipPath
       id="clipPath6571"
       clipPathUnits="userSpaceOnUse"><path
         inkscape:connector-curvature="0"
         id="path6573"
         d="m 307.715,541.4 93.836,0 0,-71.147 -93.836,0 0,71.147 z" /></clipPath><clipPath
       id="clipPath6575"
       clipPathUnits="userSpaceOnUse"><path
         inkscape:connector-curvature="0"
         id="path6577"
         d="m 283.735,543.176 116.04,0 0,-160.691 -116.04,0 0,160.691 z" /></clipPath><clipPath
       id="clipPath6579"
       clipPathUnits="userSpaceOnUse"><path
         inkscape:connector-curvature="0"
         id="path6581"
         d="m 283.735,472.029 112.354,0 0,-89.544 -112.354,0 0,89.544 z" /></clipPath><clipPath
       id="clipPath6583"
       clipPathUnits="userSpaceOnUse"><path
         inkscape:connector-curvature="0"
         id="path6585"
         d="m 305.939,543.176 93.836,0 0,-71.147 -93.836,0 0,71.147 z" /></clipPath><clipPath
       id="clipPath6587"
       clipPathUnits="userSpaceOnUse"><path
         inkscape:connector-curvature="0"
         id="path6589"
         d="m 281.959,544.952 116.041,0 0,-160.691 -116.041,0 0,160.691 z" /></clipPath><clipPath
       id="clipPath6591"
       clipPathUnits="userSpaceOnUse"><path
         inkscape:connector-curvature="0"
         id="path6593"
         d="m 281.959,473.805 112.354,0 0,-89.544 -112.354,0 0,89.544 z" /></clipPath><clipPath
       id="clipPath6595"
       clipPathUnits="userSpaceOnUse"><path
         inkscape:connector-curvature="0"
         id="path6597"
         d="m 304.163,544.952 93.837,0 0,-71.147 -93.837,0 0,71.147 z" /></clipPath><clipPath
       id="clipPath6599"
       clipPathUnits="userSpaceOnUse"><path
         inkscape:connector-curvature="0"
         id="path6601"
         d="m 280.184,546.728 116.04,0 0,-160.691 -116.04,0 0,160.691 z" /></clipPath><clipPath
       id="clipPath6603"
       clipPathUnits="userSpaceOnUse"><path
         inkscape:connector-curvature="0"
         id="path6605"
         d="m 280.184,475.581 112.354,0 0,-89.544 -112.354,0 0,89.544 z" /></clipPath><clipPath
       id="clipPath6607"
       clipPathUnits="userSpaceOnUse"><path
         inkscape:connector-curvature="0"
         id="path6609"
         d="m 302.387,546.728 93.837,0 0,-71.147 -93.837,0 0,71.147 z" /></clipPath><clipPath
       id="clipPath6611"
       clipPathUnits="userSpaceOnUse"><path
         inkscape:connector-curvature="0"
         id="path6613"
         d="m 278.408,548.503 116.04,0 0,-160.691 -116.04,0 0,160.691 z" /></clipPath><clipPath
       id="clipPath6615"
       clipPathUnits="userSpaceOnUse"><path
         inkscape:connector-curvature="0"
         id="path6617"
         d="m 278.408,477.356 112.354,0 0,-89.544 -112.354,0 0,89.544 z" /></clipPath><clipPath
       id="clipPath6619"
       clipPathUnits="userSpaceOnUse"><path
         inkscape:connector-curvature="0"
         id="path6621"
         d="m 300.612,548.503 93.836,0 0,-71.147 -93.836,0 0,71.147 z" /></clipPath><clipPath
       id="clipPath6623"
       clipPathUnits="userSpaceOnUse"><path
         inkscape:connector-curvature="0"
         id="path6625"
         d="m 276.632,550.279 116.04,0 0,-160.69 -116.04,0 0,160.69 z" /></clipPath><clipPath
       id="clipPath6627"
       clipPathUnits="userSpaceOnUse"><path
         inkscape:connector-curvature="0"
         id="path6629"
         d="m 276.632,479.132 112.354,0 0,-89.543 -112.354,0 0,89.543 z" /></clipPath><clipPath
       id="clipPath6631"
       clipPathUnits="userSpaceOnUse"><path
         inkscape:connector-curvature="0"
         id="path6633"
         d="m 298.836,550.279 93.836,0 0,-71.147 -93.836,0 0,71.147 z" /></clipPath><clipPath
       id="clipPath6635"
       clipPathUnits="userSpaceOnUse"><path
         inkscape:connector-curvature="0"
         id="path6637"
         d="m 274.856,552.055 116.04,0 0,-160.691 -116.04,0 0,160.691 z" /></clipPath><clipPath
       id="clipPath6639"
       clipPathUnits="userSpaceOnUse"><path
         inkscape:connector-curvature="0"
         id="path6641"
         d="m 274.856,480.908 112.354,0 0,-89.544 -112.354,0 0,89.544 z" /></clipPath><clipPath
       id="clipPath6643"
       clipPathUnits="userSpaceOnUse"><path
         inkscape:connector-curvature="0"
         id="path6645"
         d="m 297.06,552.055 93.836,0 0,-71.147 -93.836,0 0,71.147 z" /></clipPath><clipPath
       id="clipPath6647"
       clipPathUnits="userSpaceOnUse"><path
         inkscape:connector-curvature="0"
         id="path6649"
         d="m 273.081,553.831 116.04,0 0,-160.691 -116.04,0 0,160.691 z" /></clipPath><clipPath
       id="clipPath6651"
       clipPathUnits="userSpaceOnUse"><path
         inkscape:connector-curvature="0"
         id="path6653"
         d="m 273.081,482.684 112.354,0 0,-89.544 -112.354,0 0,89.544 z" /></clipPath><clipPath
       id="clipPath6655"
       clipPathUnits="userSpaceOnUse"><path
         inkscape:connector-curvature="0"
         id="path6657"
         d="m 295.284,553.831 93.837,0 0,-71.147 -93.837,0 0,71.147 z" /></clipPath><clipPath
       id="clipPath6659"
       clipPathUnits="userSpaceOnUse"><path
         inkscape:connector-curvature="0"
         id="path6661"
         d="m 271.305,555.606 116.04,0 0,-160.69 -116.04,0 0,160.69 z" /></clipPath><clipPath
       id="clipPath6663"
       clipPathUnits="userSpaceOnUse"><path
         inkscape:connector-curvature="0"
         id="path6665"
         d="m 271.305,484.459 112.354,0 0,-89.543 -112.354,0 0,89.543 z" /></clipPath><clipPath
       id="clipPath6667"
       clipPathUnits="userSpaceOnUse"><path
         inkscape:connector-curvature="0"
         id="path6669"
         d="m 293.509,555.606 93.836,0 0,-71.147 -93.836,0 0,71.147 z" /></clipPath><clipPath
       id="clipPath6671"
       clipPathUnits="userSpaceOnUse"><path
         inkscape:connector-curvature="0"
         id="path6673"
         d="m 269.529,486.235 112.354,0 0,-89.544 -112.354,0 0,89.544 z" /></clipPath><clipPath
       id="clipPath6675"
       clipPathUnits="userSpaceOnUse"><path
         inkscape:connector-curvature="0"
         id="path6677"
         d="m 291.733,557.382 93.836,0 0,-71.147 -93.836,0 0,71.147 z" /></clipPath><clipPath
       id="clipPath7109"
       clipPathUnits="userSpaceOnUse"><path
         inkscape:connector-curvature="0"
         id="path7111"
         d="m 56.436,337.646 132.812,0 0,-212.862 -132.812,0 0,212.862 z" /></clipPath><clipPath
       id="clipPath7113"
       clipPathUnits="userSpaceOnUse"><path
         inkscape:connector-curvature="0"
         id="path7115"
         d="m 75.9692,318.112 113.2788,0 0,-193.328 -113.2788,0 0,193.328 z" /></clipPath><clipPath
       id="clipPath7117"
       clipPathUnits="userSpaceOnUse"><path
         inkscape:connector-curvature="0"
         id="path7119"
         d="m 74.1934,319.888 113.2786,0 0,-193.328 -113.2786,0 0,193.328 z" /></clipPath><clipPath
       id="clipPath7121"
       clipPathUnits="userSpaceOnUse"><path
         inkscape:connector-curvature="0"
         id="path7123"
         d="m 72.418,321.664 113.278,0 0,-193.328 -113.278,0 0,193.328 z" /></clipPath><clipPath
       id="clipPath7125"
       clipPathUnits="userSpaceOnUse"><path
         inkscape:connector-curvature="0"
         id="path7127"
         d="m 70.6421,323.439 113.2779,0 0,-193.328 -113.2779,0 0,193.328 z" /></clipPath><clipPath
       id="clipPath7129"
       clipPathUnits="userSpaceOnUse"><path
         inkscape:connector-curvature="0"
         id="path7131"
         d="m 68.8662,325.215 113.2788,0 0,-193.328 -113.2788,0 0,193.328 z" /></clipPath><clipPath
       id="clipPath7133"
       clipPathUnits="userSpaceOnUse"><path
         inkscape:connector-curvature="0"
         id="path7135"
         d="m 67.0903,326.991 113.2787,0 0,-193.328 -113.2787,0 0,193.328 z" /></clipPath><clipPath
       id="clipPath7137"
       clipPathUnits="userSpaceOnUse"><path
         inkscape:connector-curvature="0"
         id="path7139"
         d="m 65.3149,328.767 113.2781,0 0,-193.329 -113.2781,0 0,193.329 z" /></clipPath><clipPath
       id="clipPath7141"
       clipPathUnits="userSpaceOnUse"><path
         inkscape:connector-curvature="0"
         id="path7143"
         d="m 63.5391,330.543 113.2779,0 0,-193.328 -113.2779,0 0,193.328 z" /></clipPath><clipPath
       id="clipPath7145"
       clipPathUnits="userSpaceOnUse"><path
         inkscape:connector-curvature="0"
         id="path7147"
         d="m 61.7632,332.318 113.2788,0 0,-193.328 -113.2788,0 0,193.328 z" /></clipPath><clipPath
       id="clipPath7149"
       clipPathUnits="userSpaceOnUse"><path
         inkscape:connector-curvature="0"
         id="path7151"
         d="m 59.9873,334.094 113.2787,0 0,-193.328 -113.2787,0 0,193.328 z" /></clipPath><clipPath
       id="clipPath7153"
       clipPathUnits="userSpaceOnUse"><path
         inkscape:connector-curvature="0"
         id="path7155"
         d="m 58.2119,335.87 113.2781,0 0,-193.328 -113.2781,0 0,193.328 z" /></clipPath><clipPath
       id="clipPath7361"
       clipPathUnits="userSpaceOnUse"><path
         inkscape:connector-curvature="0"
         id="path7363"
         d="m 280.821,304.025 118.397,0 0,-174.482 -118.397,0 0,174.482 z" /></clipPath><clipPath
       id="clipPath7365"
       clipPathUnits="userSpaceOnUse"><path
         inkscape:connector-curvature="0"
         id="path7367"
         d="m 300.354,284.492 98.864,0 0,-154.949 -98.864,0 0,154.949 z" /></clipPath><clipPath
       id="clipPath7369"
       clipPathUnits="userSpaceOnUse"><path
         inkscape:connector-curvature="0"
         id="path7371"
         d="m 298.578,286.268 98.864,0 0,-154.95 -98.864,0 0,154.95 z" /></clipPath><clipPath
       id="clipPath7373"
       clipPathUnits="userSpaceOnUse"><path
         inkscape:connector-curvature="0"
         id="path7375"
         d="m 296.803,288.044 98.864,0 0,-154.949 -98.864,0 0,154.949 z" /></clipPath><clipPath
       id="clipPath7377"
       clipPathUnits="userSpaceOnUse"><path
         inkscape:connector-curvature="0"
         id="path7379"
         d="m 295.027,289.819 98.864,0 0,-154.949 -98.864,0 0,154.949 z" /></clipPath><clipPath
       id="clipPath7381"
       clipPathUnits="userSpaceOnUse"><path
         inkscape:connector-curvature="0"
         id="path7383"
         d="m 293.251,291.595 98.864,0 0,-154.949 -98.864,0 0,154.949 z" /></clipPath><clipPath
       id="clipPath7385"
       clipPathUnits="userSpaceOnUse"><path
         inkscape:connector-curvature="0"
         id="path7387"
         d="m 291.475,293.371 98.864,0 0,-154.949 -98.864,0 0,154.949 z" /></clipPath><clipPath
       id="clipPath7389"
       clipPathUnits="userSpaceOnUse"><path
         inkscape:connector-curvature="0"
         id="path7391"
         d="m 289.7,295.146 98.863,0 0,-154.949 -98.863,0 0,154.949 z" /></clipPath><clipPath
       id="clipPath7393"
       clipPathUnits="userSpaceOnUse"><path
         inkscape:connector-curvature="0"
         id="path7395"
         d="m 287.924,296.923 98.864,0 0,-154.949 -98.864,0 0,154.949 z" /></clipPath><clipPath
       id="clipPath7397"
       clipPathUnits="userSpaceOnUse"><path
         inkscape:connector-curvature="0"
         id="path7399"
         d="m 286.148,298.698 98.864,0 0,-154.949 -98.864,0 0,154.949 z" /></clipPath><clipPath
       id="clipPath7401"
       clipPathUnits="userSpaceOnUse"><path
         inkscape:connector-curvature="0"
         id="path7403"
         d="m 284.372,300.474 98.864,0 0,-154.95 -98.864,0 0,154.95 z" /></clipPath><clipPath
       id="clipPath7405"
       clipPathUnits="userSpaceOnUse"><path
         inkscape:connector-curvature="0"
         id="path7407"
         d="m 282.597,302.25 98.863,0 0,-154.949 -98.863,0 0,154.949 z" /></clipPath><clipPath
       id="clipPath7409"
       clipPathUnits="userSpaceOnUse"><path
         inkscape:connector-curvature="0"
         id="path7411"
         d="m 280.821,304.025 98.864,0 0,-154.949 -98.864,0 0,154.949 z" /></clipPath><clipPath
       id="clipPath7569"
       clipPathUnits="userSpaceOnUse"><path
         inkscape:connector-curvature="0"
         id="path7571"
         d="m 293.894,293.202 85.791,0 0,-134.901 -85.791,0 0,134.901 z" /></clipPath><clipPath
       id="clipPath7637"
       clipPathUnits="userSpaceOnUse"><path
         inkscape:connector-curvature="0"
         id="path7639"
         d="m 483.55,303.968 131.362,0 0,-172.324 -131.362,0 0,172.324 z" /></clipPath><clipPath
       id="clipPath7641"
       clipPathUnits="userSpaceOnUse"><path
         inkscape:connector-curvature="0"
         id="path7643"
         d="m 503.083,284.435 111.829,0 0,-152.791 -111.829,0 0,152.791 z" /></clipPath><clipPath
       id="clipPath7645"
       clipPathUnits="userSpaceOnUse"><path
         inkscape:connector-curvature="0"
         id="path7647"
         d="m 501.308,286.21 111.829,0 0,-152.791 -111.829,0 0,152.791 z" /></clipPath><clipPath
       id="clipPath7649"
       clipPathUnits="userSpaceOnUse"><path
         inkscape:connector-curvature="0"
         id="path7651"
         d="m 499.531,287.986 111.829,0 0,-152.791 -111.829,0 0,152.791 z" /></clipPath><clipPath
       id="clipPath7653"
       clipPathUnits="userSpaceOnUse"><path
         inkscape:connector-curvature="0"
         id="path7655"
         d="m 497.756,289.762 111.829,0 0,-152.791 -111.829,0 0,152.791 z" /></clipPath><clipPath
       id="clipPath7657"
       clipPathUnits="userSpaceOnUse"><path
         inkscape:connector-curvature="0"
         id="path7659"
         d="m 495.98,291.537 111.83,0 0,-152.791 -111.83,0 0,152.791 z" /></clipPath><clipPath
       id="clipPath7661"
       clipPathUnits="userSpaceOnUse"><path
         inkscape:connector-curvature="0"
         id="path7663"
         d="m 494.204,293.313 111.829,0 0,-152.791 -111.829,0 0,152.791 z" /></clipPath><clipPath
       id="clipPath7665"
       clipPathUnits="userSpaceOnUse"><path
         inkscape:connector-curvature="0"
         id="path7667"
         d="m 492.429,295.089 111.829,0 0,-152.791 -111.829,0 0,152.791 z" /></clipPath><clipPath
       id="clipPath7669"
       clipPathUnits="userSpaceOnUse"><path
         inkscape:connector-curvature="0"
         id="path7671"
         d="m 490.652,296.865 111.829,0 0,-152.791 -111.829,0 0,152.791 z" /></clipPath><clipPath
       id="clipPath7673"
       clipPathUnits="userSpaceOnUse"><path
         inkscape:connector-curvature="0"
         id="path7675"
         d="m 488.877,298.641 111.829,0 0,-152.791 -111.829,0 0,152.791 z" /></clipPath><clipPath
       id="clipPath7677"
       clipPathUnits="userSpaceOnUse"><path
         inkscape:connector-curvature="0"
         id="path7679"
         d="m 487.102,300.416 111.829,0 0,-152.791 -111.829,0 0,152.791 z" /></clipPath><clipPath
       id="clipPath7681"
       clipPathUnits="userSpaceOnUse"><path
         inkscape:connector-curvature="0"
         id="path7683"
         d="m 485.325,302.192 111.829,0 0,-152.791 -111.829,0 0,152.791 z" /></clipPath><clipPath
       id="clipPath7885"
       clipPathUnits="userSpaceOnUse"><path
         inkscape:connector-curvature="0"
         id="path7887"
         d="m 631.539,315.758 165.072,0 0,-194.588 -165.072,0 0,194.588 z" /></clipPath><clipPath
       id="clipPath7889"
       clipPathUnits="userSpaceOnUse"><path
         inkscape:connector-curvature="0"
         id="path7891"
         d="m 651.072,296.225 145.539,0 0,-175.055 -145.539,0 0,175.055 z" /></clipPath><clipPath
       id="clipPath7893"
       clipPathUnits="userSpaceOnUse"><path
         inkscape:connector-curvature="0"
         id="path7895"
         d="m 649.297,298 145.539,0 0,-175.055 -145.539,0 0,175.055 z" /></clipPath><clipPath
       id="clipPath7897"
       clipPathUnits="userSpaceOnUse"><path
         inkscape:connector-curvature="0"
         id="path7899"
         d="m 647.521,299.776 145.539,0 0,-175.054 -145.539,0 0,175.054 z" /></clipPath><clipPath
       id="clipPath7901"
       clipPathUnits="userSpaceOnUse"><path
         inkscape:connector-curvature="0"
         id="path7903"
         d="m 645.745,301.552 145.539,0 0,-175.055 -145.539,0 0,175.055 z" /></clipPath><clipPath
       id="clipPath7905"
       clipPathUnits="userSpaceOnUse"><path
         inkscape:connector-curvature="0"
         id="path7907"
         d="m 643.97,303.327 145.539,0 0,-175.055 -145.539,0 0,175.055 z" /></clipPath><clipPath
       id="clipPath7909"
       clipPathUnits="userSpaceOnUse"><path
         inkscape:connector-curvature="0"
         id="path7911"
         d="m 642.193,305.104 145.539,0 0,-175.055 -145.539,0 0,175.055 z" /></clipPath><clipPath
       id="clipPath7913"
       clipPathUnits="userSpaceOnUse"><path
         inkscape:connector-curvature="0"
         id="path7915"
         d="m 640.418,306.879 145.539,0 0,-175.055 -145.539,0 0,175.055 z" /></clipPath><clipPath
       id="clipPath7917"
       clipPathUnits="userSpaceOnUse"><path
         inkscape:connector-curvature="0"
         id="path7919"
         d="m 638.642,308.655 145.539,0 0,-175.054 -145.539,0 0,175.054 z" /></clipPath><clipPath
       id="clipPath7921"
       clipPathUnits="userSpaceOnUse"><path
         inkscape:connector-curvature="0"
         id="path7923"
         d="m 636.866,310.431 145.539,0 0,-175.055 -145.539,0 0,175.055 z" /></clipPath><clipPath
       id="clipPath7925"
       clipPathUnits="userSpaceOnUse"><path
         inkscape:connector-curvature="0"
         id="path7927"
         d="m 635.091,312.206 145.539,0 0,-175.055 -145.539,0 0,175.055 z" /></clipPath><clipPath
       id="clipPath7929"
       clipPathUnits="userSpaceOnUse"><path
         inkscape:connector-curvature="0"
         id="path7931"
         d="m 633.314,313.982 145.54,0 0,-175.054 -145.54,0 0,175.054 z" /></clipPath><clipPath
       id="clipPath7933"
       clipPathUnits="userSpaceOnUse"><path
         inkscape:connector-curvature="0"
         id="path7935"
         d="m 631.539,315.758 145.539,0 0,-175.055 -145.539,0 0,175.055 z" /></clipPath></defs><sodipodi:namedview
     pagecolor="#ffffff"
     bordercolor="#666666"
     borderopacity="1"
     objecttolerance="10"
     gridtolerance="10"
     guidetolerance="10"
     inkscape:pageopacity="0"
     inkscape:pageshadow="2"
     inkscape:window-width="1366"
     inkscape:window-height="710"
     id="namedview4"
     showgrid="false"
     inkscape:zoom="0.472"
     inkscape:cx="437.04715"
     inkscape:cy="501.81232"
     inkscape:window-x="0"
     inkscape:window-y="30"
     inkscape:window-maximized="1"
     inkscape:current-layer="g4707"
     showguides="true"
     inkscape:guide-bbox="true" /><g
     id="g10"
     inkscape:groupmode="layer"
     inkscape:label="87060-OHQRIQ-956"
     transform="matrix(1.25,0,0,-1.25,0,215.99999)"><g
       id="g4707"
       transform="translate(-112.6147,-218.20898)"><g
         transform="scale(1,-1)"
         style="font-style:normal;font-weight:normal;font-size:134.74472046px;line-height:125%;font-family:sans-serif;letter-spacing:0px;word-spacing:0px;fill:#000000;fill-opacity:1;stroke:none;stroke-width:1px;stroke-linecap:butt;stroke-linejoin:miter;stroke-opacity:1"
         id="text4667"><path
           d="m 207.89157,-292.30265 c 0.53898,0 7.94994,-0.80846 17.11258,-0.80846 9.29739,0 16.70835,0.80846 17.38207,0.80846 1.61694,0 2.6949,-1.2127 2.6949,-2.96438 0,-3.9076 -2.6949,-3.36862 -8.62366,-3.9076 -4.58133,-0.53898 -4.71607,-3.23387 -4.71607,-6.60249 l 0,-0.94321 c 0,-6.60249 -0.13474,-13.20498 -0.67372,-65.48594 0,-2.4254 1.07795,-3.36861 3.23387,-3.90759 7.27621,-2.29066 10.51009,-1.34745 10.51009,-4.98556 0,-2.82964 -1.07796,-2.96438 -2.02117,-2.96438 l -19.53799,0 c -1.2127,0 -1.88642,0.26949 -2.4254,1.2127 -0.13475,0 0,0 -36.51582,68.31557 -0.40424,0.94322 -0.94321,1.4822 -1.88643,1.4822 -1.2127,0 -2.02117,-1.07796 -2.29066,-1.61694 l -15.76513,-25.06252 -25.46675,-42.57933 c -0.80847,-1.34745 -1.48219,-1.75168 -3.36862,-1.75168 l -19.40324,0 c -0.94321,0 -2.42541,0.13474 -2.42541,2.96438 0,2.29066 1.75169,2.29066 2.6949,2.42541 7.81519,0.13474 10.91432,6.06351 12.93549,8.21943 0.67373,0.80846 1.48219,1.61693 1.48219,3.36861 0,6.06352 -1.34744,36.24633 -3.36861,60.23089 -0.40424,3.77286 0.13474,6.6025 -4.31183,7.14147 -6.73724,0.80847 -9.97111,0.40424 -9.97111,4.44658 0,2.4254 1.48219,2.96438 2.4254,2.96438 0.53898,0 7.54571,-0.80846 16.16937,-0.80846 8.62366,0 15.63039,0.80846 16.16936,0.80846 1.88643,0 2.42541,-1.88642 2.42541,-3.09912 0,-6.46775 -11.31856,-1.61694 -12.666,-6.06352 -0.40424,-1.34744 -0.80847,-21.6939 -0.80847,-27.35318 0,-9.43213 0.26949,-18.59477 0.80847,-28.0269 0,-0.26949 0.13474,-0.67372 0.53897,-0.67372 0.13475,0 0.26949,0 0.40424,0.13474 1.07796,0.67373 20.4812,31.53027 35.03363,61.4436 0.94321,1.88642 2.15591,4.85081 4.71606,4.85081 0.53898,0 1.75168,-0.13475 2.96438,-1.61694 2.42541,-2.96438 23.1761,-43.92678 35.16838,-63.06053 0.40423,-0.67372 0.94321,-1.61694 1.88642,-1.61694 0.40424,0 0.80847,0.13475 0.94322,0.80847 0.13474,0.40424 0.40423,12.26177 0.40423,21.55916 l 0,28.70062 c 0,0.80847 0,1.75168 -0.13474,2.56015 -1.4822,7.94994 -14.28295,2.15592 -14.28295,8.21943 0,1.2127 0.53898,3.23387 2.56015,3.23387 z"
           style="font-style:normal;font-variant:normal;font-weight:normal;font-stretch:normal;font-family:'Goudy Bookletter 1911';-inkscape-font-specification:'Goudy Bookletter 1911, '"
           id="path4876" /><path
           d="m 249.12978,-339.59804 c 0,3.09913 2.82964,4.85081 5.38979,4.85081 1.75168,0 2.56015,-0.94322 2.96438,-1.4822 0.26949,-0.53897 3.9076,-9.02789 11.58805,-9.02789 3.50336,0 6.19826,1.88642 7.81519,3.63811 2.6949,3.09912 3.23388,6.46774 3.23388,10.77957 l 0,4.85081 c 0,0.94322 -0.13475,1.61694 -1.07796,1.88643 -0.26949,0.13474 -16.43886,0.67372 -23.71507,6.46775 -3.23388,2.56015 -5.65928,6.87198 -5.65928,11.99228 l 0,0.13474 c 0,8.21943 6.06351,15.09141 15.3609,15.09141 4.98555,0 9.43213,-1.75168 12.53126,-3.77285 3.36861,-2.29066 2.96438,-2.96439 3.6381,-2.96439 0.13475,0 0.13475,0.13475 0.26949,0.13475 0.26949,0.13474 3.50337,5.52453 9.56688,5.52453 7.00672,0 10.37534,-7.5457 10.37534,-10.64483 0,-1.2127 -0.67372,-1.75168 -1.2127,-1.75168 -2.02117,0 -1.75168,4.44657 -5.92877,4.44657 -1.34745,0 -4.58132,-0.67372 -4.58132,-5.92876 l 0,-26.54471 c 0,-1.61694 -0.13474,-3.23388 -0.26949,-4.85081 -1.34745,-13.20499 -14.41768,-14.82192 -19.53798,-14.82192 -11.18381,0 -20.75069,7.14147 -20.75069,11.99228 z m 19.13375,41.77086 c -1.75168,0 -4.17709,-0.26949 -5.79402,-1.75168 -2.15592,-1.88643 -2.82964,-5.25505 -2.82964,-7.41096 0,-3.36862 1.48219,-5.79402 3.23387,-7.27622 4.44658,-4.17708 13.60922,-4.85081 16.03462,-4.85081 1.21271,0 1.34745,0.67373 1.34745,3.9076 l 0,5.52453 0,3.23388 c 0,1.2127 -0.13474,2.15591 -0.80847,3.09913 -0.67372,0.94321 -4.58132,5.52453 -11.18381,5.52453 z"
           style="font-style:normal;font-variant:normal;font-weight:normal;font-stretch:normal;font-family:'Goudy Bookletter 1911';-inkscape-font-specification:'Goudy Bookletter 1911, '"
           id="path4878" /><path
           d="m 321.86876,-343.90987 c -0.26948,0 -0.40423,-0.26949 -0.40423,-0.67373 l 0,-5.38979 c 0,-1.2127 -0.13474,-2.69489 -1.61694,-2.69489 -0.40423,0 -0.80846,0.26949 -1.2127,0.40423 -14.01345,6.87198 -14.14819,6.60249 -14.14819,7.27622 0.13474,0.53898 0.40423,0.80847 0.53897,0.94321 6.33301,4.58132 7.41096,4.44658 7.41096,7.14147 l 0,35.70735 c 0,2.02117 -0.53897,2.82964 -2.4254,3.23388 -3.63811,0.94321 -6.06351,0.13474 -6.06351,3.36861 0,1.34745 0.80846,2.29066 2.15591,2.29066 0.40424,0 6.19826,-0.80846 13.74396,-0.80846 7.27622,0 13.20499,0.80846 13.60922,0.80846 1.75168,0 1.88643,-1.61693 1.88643,-2.69489 0,-3.09913 -1.75168,-2.56015 -9.83637,-3.23387 -3.23387,-0.26949 -3.36862,-2.56015 -3.36862,-4.04235 l 0,-0.53897 0,-32.33874 c 0,-0.94321 0,-1.61693 0.53898,-2.4254 0.80847,-1.2127 6.19826,-5.52454 10.51009,-5.52454 4.44658,0 4.58132,3.36862 7.94994,3.36862 2.29066,0 4.04234,-1.75168 5.52453,-2.69489 1.07796,-0.94322 3.50337,-2.42541 3.63811,-4.71607 l 0,-0.13474 c 0,-3.77285 -6.19826,-5.92877 -10.51009,-5.92877 -1.48219,0 -2.69489,0.13474 -3.90759,0.53898 -3.63811,1.34745 -13.47448,8.75841 -14.01346,8.75841 z"
           style="font-style:normal;font-variant:normal;font-weight:normal;font-stretch:normal;font-family:'Goudy Bookletter 1911';-inkscape-font-specification:'Goudy Bookletter 1911, '"
           id="path4880" /><path
           d="m 364.50494,-376.38335 c 0,3.63811 2.82964,6.333 6.333,6.333 3.50336,0 6.60249,-2.82964 6.60249,-6.46775 0,-3.36861 -2.96438,-6.19825 -6.46775,-6.19825 -3.50336,0 -6.46774,2.82964 -6.46774,6.333 z m -1.34745,66.96812 0,6.33301 c 0,2.4254 -0.26949,4.31183 -3.63811,4.85081 -6.06351,0.80846 -6.60249,0.53898 -6.60249,3.6381 0,1.34745 0.67372,2.29066 2.02117,2.29066 0.40424,0 5.65928,-0.80846 12.39652,-0.80846 6.60249,0 11.99228,0.80846 12.39651,0.80846 1.48219,0 1.61694,-1.88642 1.61694,-2.96438 0,-2.29066 -1.61694,-2.15592 -6.06352,-2.82964 -2.96438,-0.40423 -3.09912,-0.80847 -3.09912,-17.24732 l 0,-4.44658 c 0,-16.43886 0.80846,-29.50909 0.80846,-30.58705 0,-1.61694 -1.07795,-2.15592 -1.88642,-2.15592 l -0.13475,0 c -0.67372,0 -0.80847,0.26949 -14.82192,7.00673 -1.48219,0.67372 -3.6381,1.2127 -3.6381,2.82964 0,1.07796 0.94321,1.48219 1.61693,1.75168 8.62367,3.50336 9.16264,3.36862 9.16264,5.52453 0,2.56015 -0.13474,10.37535 -0.13474,26.00573 z"
           style="font-style:normal;font-variant:normal;font-weight:normal;font-stretch:normal;font-family:'Goudy Bookletter 1911';-inkscape-font-specification:'Goudy Bookletter 1911, '"
           id="path4882" /><path
           d="m 387.03257,-339.59804 c 0,3.09913 2.82964,4.85081 5.38979,4.85081 1.75168,0 2.56014,-0.94322 2.96438,-1.4822 0.26949,-0.53897 3.9076,-9.02789 11.58805,-9.02789 3.50336,0 6.19825,1.88642 7.81519,3.63811 2.69489,3.09912 3.23387,6.46774 3.23387,10.77957 l 0,4.85081 c 0,0.94322 -0.13474,1.61694 -1.07796,1.88643 -0.26949,0.13474 -16.43885,0.67372 -23.71507,6.46775 -3.23387,2.56015 -5.65927,6.87198 -5.65927,11.99228 l 0,0.13474 c 0,8.21943 6.06351,15.09141 15.36089,15.09141 4.98556,0 9.43213,-1.75168 12.53126,-3.77285 3.36862,-2.29066 2.96439,-2.96439 3.63811,-2.96439 0.13474,0 0.13474,0.13475 0.26949,0.13475 0.26949,0.13474 3.50336,5.52453 9.56687,5.52453 7.00673,0 10.37535,-7.5457 10.37535,-10.64483 0,-1.2127 -0.67373,-1.75168 -1.2127,-1.75168 -2.02118,0 -1.75169,4.44657 -5.92877,4.44657 -1.34745,0 -4.58132,-0.67372 -4.58132,-5.92876 l 0,-26.54471 c 0,-1.61694 -0.13475,-3.23388 -0.26949,-4.85081 -1.34745,-13.20499 -14.41769,-14.82192 -19.53799,-14.82192 -11.18381,0 -20.75068,7.14147 -20.75068,11.99228 z m 19.13375,41.77086 c -1.75168,0 -4.17709,-0.26949 -5.79403,-1.75168 -2.15591,-1.88643 -2.82964,-5.25505 -2.82964,-7.41096 0,-3.36862 1.4822,-5.79402 3.23388,-7.27622 4.44657,-4.17708 13.60921,-4.85081 16.03462,-4.85081 1.2127,0 1.34745,0.67373 1.34745,3.9076 l 0,5.52453 0,3.23388 c 0,1.2127 -0.13475,2.15591 -0.80847,3.09913 -0.67373,0.94321 -4.58132,5.52453 -11.18381,5.52453 z"
           style="font-style:normal;font-variant:normal;font-weight:normal;font-stretch:normal;font-family:'Goudy Bookletter 1911';-inkscape-font-specification:'Goudy Bookletter 1911, '"
           id="path4884" /><path
           d="m 486.04679,-385.54599 c -3.90759,0 -5.92876,-0.13475 -6.46774,-0.13475 -1.61694,0 -2.42541,0.94322 -2.42541,2.42541 0,2.82964 1.07796,3.36862 2.42541,3.36862 4.58132,0.40423 7.00672,0.53897 7.00672,4.31183 l 0,73.70536 c 0,2.29066 -1.34744,2.4254 -2.82964,2.69489 -5.79402,0.67373 -7.5457,0.53898 -7.5457,3.09913 0,3.09913 1.2127,3.23387 2.56015,3.23387 l 0.26949,0 c 6.06351,0 10.64483,-0.26948 15.3609,-0.26948 6.19825,0 12.26177,0.80846 18.46002,0.80846 9.70162,0 14.68718,-2.4254 16.16937,-3.09912 7.94994,-3.50337 17.11258,-12.53126 17.11258,-25.46676 0,-11.99228 -8.35417,-21.42441 -18.72952,-23.44558 -0.26949,-0.13474 -0.40423,-0.26949 -0.40423,-0.40423 0,-0.13475 0.13474,-0.26949 0.26949,-0.40424 7.14147,-4.44657 12.80075,-12.26177 12.80075,-20.75068 0,-7.27622 -4.31183,-12.66601 -8.21943,-15.49565 -7.00673,-4.85081 -16.84309,-5.38979 -22.36762,-5.38979 -8.08469,0 -15.22616,1.21271 -23.44559,1.21271 z m 42.04036,22.50237 c 0,2.69489 -0.67373,5.25504 -1.88643,7.68044 -4.31183,8.21943 -13.47447,8.62367 -18.86426,8.62367 l -1.75168,0 -6.06351,0 c -1.21271,0 -1.34745,-0.67373 -1.34745,-1.75168 l 0,-28.83537 0,-0.26949 c 0,-0.53898 0,-1.21271 0.67372,-1.75169 1.34745,-1.07795 6.73724,-1.48219 9.43213,-1.48219 15.76514,0 19.80748,11.31856 19.80748,17.78631 z m -19.53799,64.40797 c -2.15591,0 -4.31183,-0.26949 -6.333,-0.53898 -3.9076,-0.67372 -4.04234,-2.69489 -4.04234,-4.98555 l 0,-34.76414 c 0,-1.07796 0.13474,-2.02117 1.88643,-2.02117 l 6.87198,0 c 3.77285,0 7.68044,0 11.31855,0.80847 11.72279,2.56015 15.89988,11.99228 15.89988,19.94222 0,14.14819 -12.26177,21.55915 -25.6015,21.55915 z"
           style="font-style:normal;font-variant:normal;font-weight:normal;font-stretch:normal;font-family:'Goudy Bookletter 1911';-inkscape-font-specification:'Goudy Bookletter 1911, '"
           id="path4886" /><path
           d="m 565.20299,-306.72033 c -4.17709,0 -7.94994,3.09913 -7.94994,7.81519 0,4.71607 3.9076,8.08469 8.08469,8.08469 4.58132,0 7.94993,-3.77286 7.94993,-7.94994 0,-4.44658 -3.77285,-7.94994 -8.08468,-7.94994 z"
           style="font-style:normal;font-variant:normal;font-weight:normal;font-stretch:normal;font-family:'Goudy Bookletter 1911';-inkscape-font-specification:'Goudy Bookletter 1911, '"
           id="path4888" /><path
           d="m 634.53758,-384.0638 -0.94321,0 c -9.29738,-0.13475 -13.8787,-0.40423 -15.3609,-0.40423 -1.61693,0 -2.56015,0.80846 -2.56015,3.36861 0,2.56015 1.61694,3.09913 3.36862,3.23388 5.79402,0.13474 7.54571,-0.53898 7.54571,3.23387 l 0,70.74098 0,0.40423 c 0,1.75168 -0.13475,3.50336 -3.09913,4.31183 -5.79403,1.21271 -7.41096,1.21271 -7.41096,3.9076 0,1.07796 0.40423,2.15592 2.15591,2.15592 l 7.14147,0 c 30.18282,0 54.30213,0.80846 56.18855,0.80846 3.09913,0 3.36862,-1.48219 3.63811,-2.96438 0.94321,-6.333 2.69489,-18.32528 2.69489,-18.99901 0,-2.69489 -3.23387,-3.09912 -4.04234,-3.09912 -0.80847,0 -1.48219,0.40423 -2.02117,1.07795 -0.80847,0.94322 -4.31183,9.43213 -5.65928,11.4533 -2.29066,3.50337 -5.1203,3.63811 -7.41096,3.63811 l -0.40423,0 -25.73624,0 c -3.23388,0 -3.50337,-2.02117 -3.50337,-4.31183 l 0,-68.31557 c 0,-4.58132 1.88643,-3.63811 11.04907,-3.9076 1.48219,0 2.96439,-0.40423 2.96439,-3.09913 0,-2.15591 -0.13475,-3.6381 -2.29066,-3.6381 -1.61694,0 -6.6025,0.40423 -16.30412,0.40423 z"
           style="font-style:normal;font-variant:normal;font-weight:normal;font-stretch:normal;font-family:'Goudy Bookletter 1911';-inkscape-font-specification:'Goudy Bookletter 1911, '"
           id="path4890" /><path
           d="m 703.99847,-376.38335 c 0,3.63811 2.82964,6.333 6.333,6.333 3.50336,0 6.60249,-2.82964 6.60249,-6.46775 0,-3.36861 -2.96438,-6.19825 -6.46775,-6.19825 -3.50336,0 -6.46774,2.82964 -6.46774,6.333 z m -1.34745,66.96812 0,6.33301 c 0,2.4254 -0.26949,4.31183 -3.63811,4.85081 -6.06351,0.80846 -6.60249,0.53898 -6.60249,3.6381 0,1.34745 0.67372,2.29066 2.02117,2.29066 0.40424,0 5.65928,-0.80846 12.39652,-0.80846 6.60249,0 11.99228,0.80846 12.39651,0.80846 1.48219,0 1.61694,-1.88642 1.61694,-2.96438 0,-2.29066 -1.61694,-2.15592 -6.06352,-2.82964 -2.96438,-0.40423 -3.09912,-0.80847 -3.09912,-17.24732 l 0,-4.44658 c 0,-16.43886 0.80846,-29.50909 0.80846,-30.58705 0,-1.61694 -1.07795,-2.15592 -1.88642,-2.15592 l -0.13475,0 c -0.67372,0 -0.80846,0.26949 -14.82192,7.00673 -1.48219,0.67372 -3.6381,1.2127 -3.6381,2.82964 0,1.07796 0.94321,1.48219 1.61693,1.75168 8.62367,3.50336 9.16264,3.36862 9.16264,5.52453 0,2.56015 -0.13474,10.37535 -0.13474,26.00573 z"
           style="font-style:normal;font-variant:normal;font-weight:normal;font-stretch:normal;font-family:'Goudy Bookletter 1911';-inkscape-font-specification:'Goudy Bookletter 1911, '"
           id="path4892" /><path
           d="m 762.77243,-346.47002 c 0,2.15591 1.34744,2.15591 2.02117,2.29066 5.1203,0.40423 7.94994,0.13474 7.94994,2.69489 0,2.15592 -2.6949,19.13375 -12.9355,37.0548 0,0.13474 -0.26949,0.67372 -0.67372,0.67372 -0.67372,0 -1.07796,-0.94321 -1.2127,-1.07796 -9.56688,-16.43885 -16.03463,-34.49464 -16.03463,-36.24632 0,-1.34745 1.07796,-2.29067 2.6949,-2.42541 4.58132,-0.80847 7.5457,0.53898 7.5457,-2.82964 0,-1.48219 -0.26949,-2.69489 -1.88642,-2.69489 -1.34745,0 -5.1203,0.40423 -12.9355,0.40423 -7.68044,0 -11.4533,-0.40423 -12.80074,-0.40423 -1.07796,0 -1.61694,0.67372 -1.61694,1.75168 0,5.25504 3.63811,1.88642 6.333,5.25504 1.88643,2.42541 6.73724,17.51682 23.98456,48.10387 1.2127,2.29066 2.42541,4.17708 4.44658,4.17708 1.07795,0 2.02117,-0.53898 2.56015,-1.2127 1.61693,-1.75168 12.53126,-23.31084 19.53798,-48.77759 0.40424,-1.61693 0.40424,-1.88642 0.80847,-2.69489 1.75168,-2.96439 7.41096,0.40423 7.41096,-4.04234 0,-1.34745 -0.40423,-2.56015 -2.02117,-2.56015 -1.07796,0 -4.31183,0.40423 -10.77958,0.40423 -6.46775,0 -9.70162,-0.40423 -10.77958,-0.40423 -1.2127,0 -1.61693,0.94321 -1.61693,1.88642 l 0,0.67373 z"
           style="font-style:normal;font-variant:normal;font-weight:normal;font-stretch:normal;font-family:'Goudy Bookletter 1911';-inkscape-font-specification:'Goudy Bookletter 1911, '"
           id="path4894" /><path
           d="m 808.213,-343.90987 c -0.26949,0 -0.40423,-0.26949 -0.40423,-0.67373 l 0,-5.38979 c 0,-1.2127 -0.13475,-2.69489 -1.61694,-2.69489 -0.40423,0 -0.80847,0.26949 -1.2127,0.40423 -14.01345,6.87198 -14.1482,6.60249 -14.1482,7.27622 0.13475,0.53898 0.40424,0.80847 0.53898,0.94321 6.333,4.58132 7.41096,4.44658 7.41096,7.14147 l 0,35.70735 c 0,2.02117 -0.53898,2.82964 -2.4254,3.23388 -3.63811,0.94321 -6.06352,0.13474 -6.06352,3.36861 0,1.34745 0.80847,2.29066 2.15592,2.29066 0.40423,0 6.19826,-0.80846 13.74396,-0.80846 7.27622,0 13.20498,0.80846 13.60922,0.80846 1.75168,0 1.88642,-1.61693 1.88642,-2.69489 0,-3.09913 -1.75168,-2.56015 -9.83636,-3.23387 -3.23387,-0.26949 -3.36862,-2.56015 -3.36862,-4.04235 l 0,-0.53897 0,-32.33874 c 0,-0.94321 0,-1.61693 0.53898,-2.4254 0.80847,-1.2127 6.19826,-5.52454 10.51009,-5.52454 4.44658,0 4.58132,3.36862 7.94994,3.36862 2.29066,0 4.04234,-1.75168 5.52453,-2.69489 1.07796,-0.94322 3.50336,-2.42541 3.63811,-4.71607 l 0,-0.13474 c 0,-3.77285 -6.19826,-5.92877 -10.51009,-5.92877 -1.48219,0 -2.69489,0.13474 -3.9076,0.53898 -3.6381,1.34745 -13.47447,8.75841 -14.01345,8.75841 z"
           style="font-style:normal;font-variant:normal;font-weight:normal;font-stretch:normal;font-family:'Goudy Bookletter 1911';-inkscape-font-specification:'Goudy Bookletter 1911, '"
           id="path4896" /><path
           d="m 839.66536,-320.59904 c 0,16.5736 11.4533,30.04808 28.56588,30.04808 15.09141,0 28.70063,-10.77958 28.70063,-30.04808 0,-18.05579 -12.12703,-30.72179 -28.16165,-30.72179 -15.09141,0 -29.10486,11.99228 -29.10486,30.72179 z m 28.97012,23.44558 c -11.04907,0 -18.46003,-10.10585 -18.46003,-24.1193 0,-18.05579 10.64483,-23.71507 17.65156,-23.71507 10.2406,0 19.94222,10.51009 19.94222,24.92777 0,11.99228 -7.68045,22.9066 -19.13375,22.9066 z"
           style="font-style:normal;font-variant:normal;font-weight:normal;font-stretch:normal;font-family:'Goudy Bookletter 1911';-inkscape-font-specification:'Goudy Bookletter 1911, '"
           id="path4898" /><path
           d="m 903.91125,-334.74723 c 0,6.60249 4.04234,13.33972 14.95666,16.43885 4.31183,1.21271 16.16937,2.56015 16.16937,11.4533 0,5.38979 -4.85081,9.0279 -10.91432,9.0279 -7.8152,0 -14.01346,-5.1203 -15.3609,-7.94994 -1.88643,-3.77285 0.26949,-8.35417 -3.09913,-8.35417 -2.02117,0 -2.42541,0.67372 -2.42541,4.17709 0,1.88642 0.13475,4.44657 0.13475,8.08468 0,2.02117 0.26949,3.09913 1.61694,4.58132 3.90759,4.58132 12.39651,6.73724 18.59477,6.73724 13.33972,0 20.48119,-9.56688 20.48119,-18.19054 0,-2.15592 -0.53897,-6.60249 -4.04234,-10.64483 -4.98555,-5.79403 -11.31855,-6.19826 -18.19053,-8.08469 -9.97111,-2.82964 -10.64484,-7.81519 -10.64484,-9.70162 0,-4.31183 3.9076,-7.14147 8.48892,-7.14147 4.44658,0 9.29739,2.82964 11.04907,5.25505 1.88642,2.69489 1.48219,6.60249 4.31183,6.60249 1.07796,0 3.09913,-0.40424 3.09913,-2.15592 0,-0.53898 -1.75168,-9.43213 -2.56015,-14.14819 -0.13475,-0.67373 -0.53898,-2.56015 -2.15592,-2.56015 -1.61694,0 -2.15591,1.34744 -3.36862,1.34744 -0.67372,0 -2.69489,-0.67372 -6.73723,-0.67372 -12.12703,0 -19.40324,7.81519 -19.40324,15.89988 z"
           style="font-style:normal;font-variant:normal;font-weight:normal;font-stretch:normal;font-family:'Goudy Bookletter 1911';-inkscape-font-specification:'Goudy Bookletter 1911, '"
           id="path4900" /></g><g
         id="g4902"
         transform="translate(188.05104,0)"><path
           id="rect4675"
           d="m 116.80447,-267.68613 447.44442,0 0,5.99243 -447.44442,0 z"
           style="opacity:1;fill:#ad0063;fill-opacity:1;stroke:none;stroke-width:0.30000001;stroke-linecap:round;stroke-linejoin:round;stroke-miterlimit:4;stroke-dasharray:none;stroke-opacity:1"
           transform="scale(1,-1)"
           inkscape:connector-curvature="0" /><path
           id="rect4677"
           d="m -272.94601,-119.12834 16.51223,0 0,5.99243 -16.51223,0 z"
           style="opacity:1;fill:#ad0063;fill-opacity:1;stroke:none;stroke-width:0.30000001;stroke-linecap:round;stroke-linejoin:round;stroke-miterlimit:4;stroke-dasharray:none;stroke-opacity:1"
           transform="matrix(0,-1,-1,0,0,0)"
           inkscape:connector-curvature="0" /><path
           id="rect4679"
           d="m -272.94601,-567.99323 16.51223,0 0,5.99244 -16.51223,0 z"
           style="opacity:1;fill:#ad0063;fill-opacity:1;stroke:none;stroke-width:0.30000001;stroke-linecap:round;stroke-linejoin:round;stroke-miterlimit:4;stroke-dasharray:none;stroke-opacity:1"
           transform="matrix(0,-1,-1,0,0,0)"
           inkscape:connector-curvature="0" /><g
           id="text4686"
           style="font-style:normal;font-weight:normal;font-size:28.41710281px;line-height:125%;font-family:sans-serif;letter-spacing:0px;word-spacing:0px;fill:#000000;fill-opacity:1;stroke:none;stroke-width:1px;stroke-linecap:butt;stroke-linejoin:miter;stroke-opacity:1"
           transform="scale(1,-1)"><path
             id="path4826"
             style="font-style:normal;font-variant:normal;font-weight:300;font-stretch:normal;font-family:Lovato;-inkscape-font-specification:'Lovato Light'"
             d="m 144.19166,-236.61363 -0.25834,0 -1.47252,2.97088 -6.74261,0 0,-14.80273 1.9892,-1.08501 0,-0.28417 -5.63175,0 0,0.28417 2.01503,1.08501 0,14.82857 -2.01503,1.08501 0,0.28417 12.11602,0 0,-4.3659 z"
             inkscape:connector-curvature="0" /><path
             id="path4828"
             style="font-style:normal;font-variant:normal;font-weight:300;font-stretch:normal;font-family:Lovato;-inkscape-font-specification:'Lovato Light'"
             d="m 152.13795,-249.53049 0,-0.28417 -5.63175,0 0,0.28417 2.01503,1.08501 0,14.82857 -2.01503,1.08501 0,0.28417 5.63175,0 0,-0.28417 -1.9892,-1.08501 0,-14.82857 1.9892,-1.08501 z"
             inkscape:connector-curvature="0" /><path
             id="path4830"
             style="font-style:normal;font-variant:normal;font-weight:300;font-stretch:normal;font-family:Lovato;-inkscape-font-specification:'Lovato Light'"
             d="m 171.64161,-249.81466 -5.78676,0 0,0.28417 2.01503,1.08501 0.15501,0 -5.14092,13.12354 -5.32174,-13.12354 0.18083,0 1.9892,-1.08501 0,-0.28417 -5.91592,0 0,0.28417 1.91169,1.34335 6.87177,16.40442 0.31001,0 6.87177,-16.43025 1.86003,-1.31752 0,-0.28417 z"
             inkscape:connector-curvature="0" /><path
             id="path4832"
             style="font-style:normal;font-variant:normal;font-weight:300;font-stretch:normal;font-family:Lovato;-inkscape-font-specification:'Lovato Light'"
             d="m 188.50397,-232.5319 -2.3767,-1.24002 -5.60592,-6.22593 c 2.68671,-0.0775 5.52842,-1.83419 5.52842,-4.85674 0,-2.99671 -2.40254,-4.96007 -5.39925,-4.96007 l -7.33678,0 0,0.28417 2.01503,1.08501 0,14.82857 -2.01503,1.08501 0,0.28417 5.76092,0 0,-0.28417 -2.11836,-1.05918 0,-14.75106 3.17754,0 c 2.40254,0 4.1334,1.18835 4.1334,3.46172 0,2.2992 -1.73086,3.48755 -4.1334,3.48755 l -2.3767,0 0,0.36168 7.38845,8.78346 3.35838,0 0,-0.28417 z"
             inkscape:connector-curvature="0" /><path
             id="path4834"
             style="font-style:normal;font-variant:normal;font-weight:300;font-stretch:normal;font-family:Lovato;-inkscape-font-specification:'Lovato Light'"
             d="m 199.06936,-250.20217 c -4.98591,0 -9.17097,3.87506 -9.17097,9.17098 0,5.19258 4.18506,9.17097 9.17097,9.17097 5.01174,0 9.17097,-3.97839 9.17097,-9.17097 0,-5.29592 -4.15923,-9.17098 -9.17097,-9.17098 z m 0,1.52419 c 4.3659,0 7.36261,3.46172 7.36261,7.64679 0,4.05589 -2.99671,7.64678 -7.36261,7.64678 -4.34007,0 -7.36261,-3.59089 -7.36261,-7.64678 0,-4.15924 3.02254,-7.64679 7.36261,-7.64679 z"
             inkscape:connector-curvature="0" /><path
             id="path4836"
             style="font-style:normal;font-variant:normal;font-weight:300;font-stretch:normal;font-family:Lovato;-inkscape-font-specification:'Lovato Light'"
             d="m 220.5055,-246.48211 0,-2.35087 c -0.87835,-0.64584 -2.4542,-1.36919 -4.54674,-1.36919 -2.71254,0 -5.03757,1.86003 -5.03757,4.59841 0,2.4542 1.31752,3.77172 3.35838,4.65007 4.03006,1.73086 5.24425,2.40253 5.24425,4.5209 0,1.52419 -1.11085,3.02255 -3.41005,3.02255 -2.0667,0 -3.92673,-0.98169 -4.96008,-2.76421 l -0.28417,0 0,2.4542 c 1.21419,1.13669 3.04838,1.86003 5.01174,1.86003 3.59089,0 5.37342,-2.32504 5.37342,-4.75341 0,-2.50587 -1.62753,-3.74589 -3.69422,-4.65007 -3.22922,-1.42085 -4.88258,-2.17003 -4.88258,-4.3659 0,-1.75669 1.39502,-2.99671 3.30672,-2.99671 1.67919,0 3.35838,0.82668 4.26256,2.1442 l 0.25834,0 z"
             inkscape:connector-curvature="0" /><path
             id="path4838"
             style="font-style:normal;font-variant:normal;font-weight:300;font-stretch:normal;font-family:Lovato;-inkscape-font-specification:'Lovato Light'"
             d="m 242.44965,-236.35529 -1.47253,2.71254 -6.7426,0 0,-6.8976 5.68342,0 1.11085,1.21418 0.20667,0 0,-3.87506 -0.20667,0 -1.11085,1.21419 -5.68342,0 0,-6.4326 6.61343,0 1.31753,1.67919 0.25833,0 0,-3.07421 -11.83185,0 0,0.28417 2.01504,1.08501 0,14.82857 -2.01504,1.08501 0,0.28417 12.11602,0 0,-4.10756 -0.25833,0 z"
             inkscape:connector-curvature="0" /><path
             id="path4840"
             style="font-style:normal;font-variant:normal;font-weight:300;font-stretch:normal;font-family:Lovato;-inkscape-font-specification:'Lovato Light'"
             d="m 252.40431,-249.81466 0,0.28417 2.01503,1.08501 0,14.82857 -2.01503,1.08501 0,0.28417 5.63175,0 0,-0.28417 -1.98919,-1.08501 0,-5.27009 3.20338,0 c 4.34007,0 6.38093,-2.6092 6.38093,-5.55425 0,-2.84171 -2.17003,-5.37341 -6.38093,-5.37341 l -6.84594,0 z m 3.64256,9.48098 0,-8.03429 3.28088,0 c 3.02255,0 4.5209,1.91169 4.5209,4.03006 0,2.11836 -1.49835,4.00423 -4.5209,4.00423 l -3.28088,0 z"
             inkscape:connector-curvature="0" /><path
             id="path4842"
             style="font-style:normal;font-variant:normal;font-weight:300;font-stretch:normal;font-family:Lovato;-inkscape-font-specification:'Lovato Light'"
             d="m 282.63562,-232.5319 -2.3767,-1.24002 -5.60592,-6.22593 c 2.68671,-0.0775 5.52842,-1.83419 5.52842,-4.85674 0,-2.99671 -2.40254,-4.96007 -5.39925,-4.96007 l -7.33678,0 0,0.28417 2.01503,1.08501 0,14.82857 -2.01503,1.08501 0,0.28417 5.76092,0 0,-0.28417 -2.11837,-1.05918 0,-14.75106 3.17755,0 c 2.40254,0 4.1334,1.18835 4.1334,3.46172 0,2.2992 -1.73086,3.48755 -4.1334,3.48755 l -2.3767,0 0,0.36168 7.38845,8.78346 3.35838,0 0,-0.28417 z"
             inkscape:connector-curvature="0" /><path
             id="path4844"
             style="font-style:normal;font-variant:normal;font-weight:300;font-stretch:normal;font-family:Lovato;-inkscape-font-specification:'Lovato Light'"
             d="m 296.28673,-236.35529 -1.47252,2.71254 -6.74261,0 0,-6.8976 5.68342,0 1.11085,1.21418 0.20667,0 0,-3.87506 -0.20667,0 -1.11085,1.21419 -5.68342,0 0,-6.4326 6.61344,0 1.31752,1.67919 0.25833,0 0,-3.07421 -11.83184,0 0,0.28417 2.01503,1.08501 0,14.82857 -2.01503,1.08501 0,0.28417 12.11602,0 0,-4.10756 -0.25834,0 z"
             inkscape:connector-curvature="0" /><path
             id="path4846"
             style="font-style:normal;font-variant:normal;font-weight:300;font-stretch:normal;font-family:Lovato;-inkscape-font-specification:'Lovato Light'"
             d="m 308.94446,-248.67798 c 3.07421,0 5.11508,1.44669 6.32926,3.48755 l 0.31001,0 0,-5.01174 -0.28418,0 -1.31752,1.44669 c -1.42085,-0.93001 -3.02254,-1.44669 -4.88257,-1.44669 -5.63175,0 -9.35181,4.10756 -9.35181,9.17098 0,4.93424 3.51339,8.93847 8.91264,9.17097 l -0.38751,1.65336 c 0.82668,0 1.44669,0.31 1.44669,1.08501 0,0.87835 -0.69751,1.47253 -2.01503,2.0667 l 0.0258,0.25834 c 1.44669,-0.155 3.48756,-1.03335 3.48756,-2.66087 0,-1.11085 -1.16252,-1.52419 -2.11837,-1.52419 l 0.20667,-0.87835 c 1.73086,-0.0517 3.28088,-0.56834 4.65007,-1.44669 l 1.34335,1.44669 0.28418,0 0,-5.01174 -0.31001,0 c -1.21418,2.04086 -3.25505,3.48755 -6.32926,3.48755 -4.3659,0 -7.46595,-3.22922 -7.46595,-7.64678 0,-4.41757 3.10005,-7.64679 7.46595,-7.64679 z"
             inkscape:connector-curvature="0" /><path
             id="path4848"
             style="font-style:normal;font-variant:normal;font-weight:300;font-stretch:normal;font-family:Lovato;-inkscape-font-specification:'Lovato Light'"
             d="m 328.00086,-250.20217 c -4.98591,0 -9.17097,3.87506 -9.17097,9.17098 0,5.19258 4.18506,9.17097 9.17097,9.17097 5.01175,0 9.17098,-3.97839 9.17098,-9.17097 0,-5.29592 -4.15923,-9.17098 -9.17098,-9.17098 z m 0,1.52419 c 4.3659,0 7.36262,3.46172 7.36262,7.64679 0,4.05589 -2.99672,7.64678 -7.36262,7.64678 -4.34006,0 -7.36261,-3.59089 -7.36261,-7.64678 0,-4.15924 3.02255,-7.64679 7.36261,-7.64679 z"
             inkscape:connector-curvature="0" /><path
             id="path4850"
             style="font-style:normal;font-variant:normal;font-weight:300;font-stretch:normal;font-family:Lovato;-inkscape-font-specification:'Lovato Light'"
             d="m 349.43701,-246.48211 0,-2.35087 c -0.87834,-0.64584 -2.4542,-1.36919 -4.54673,-1.36919 -2.71255,0 -5.03758,1.86003 -5.03758,4.59841 0,2.4542 1.31752,3.77172 3.35838,4.65007 4.03007,1.73086 5.24425,2.40253 5.24425,4.5209 0,1.52419 -1.11085,3.02255 -3.41005,3.02255 -2.0667,0 -3.92673,-0.98169 -4.96008,-2.76421 l -0.28417,0 0,2.4542 c 1.21419,1.13669 3.04838,1.86003 5.01174,1.86003 3.59089,0 5.37342,-2.32504 5.37342,-4.75341 0,-2.50587 -1.62752,-3.74589 -3.69422,-4.65007 -3.22922,-1.42085 -4.88258,-2.17003 -4.88258,-4.3659 0,-1.75669 1.39502,-2.99671 3.30672,-2.99671 1.67919,0 3.35838,0.82668 4.26256,2.1442 l 0.25834,0 z"
             inkscape:connector-curvature="0" /><path
             id="path4852"
             style="font-style:normal;font-variant:normal;font-weight:300;font-stretch:normal;font-family:Lovato;-inkscape-font-specification:'Lovato Light'"
             d="m 371.38115,-236.35529 -1.47252,2.71254 -6.74261,0 0,-6.8976 5.68342,0 1.11085,1.21418 0.20667,0 0,-3.87506 -0.20667,0 -1.11085,1.21419 -5.68342,0 0,-6.4326 6.61344,0 1.31752,1.67919 0.25834,0 0,-3.07421 -11.83185,0 0,0.28417 2.01503,1.08501 0,14.82857 -2.01503,1.08501 0,0.28417 12.11602,0 0,-4.10756 -0.25834,0 z"
             inkscape:connector-curvature="0" /><path
             id="path4854"
             style="font-style:normal;font-variant:normal;font-weight:300;font-stretch:normal;font-family:Lovato;-inkscape-font-specification:'Lovato Light'"
             d="m 393.08067,-233.59108 -0.51668,-14.57022 2.04087,-1.44669 0,-0.20667 -3.02255,0 -6.76843,9.86848 -6.58761,-9.86848 -3.12588,0 0,0.20667 1.96337,1.44669 -0.51668,14.57022 -1.96336,1.05918 0,0.28417 5.52842,0 0,-0.28417 -1.86003,-1.00751 0.54251,-12.37436 5.83842,8.5768 0.38751,0 5.89009,-8.5768 0.465,12.37436 -1.88586,1.00751 0,0.28417 5.52842,0 0,-0.28417 -1.93753,-1.05918 z"
             inkscape:connector-curvature="0" /><path
             id="path4856"
             style="font-style:normal;font-variant:normal;font-weight:300;font-stretch:normal;font-family:Lovato;-inkscape-font-specification:'Lovato Light'"
             d="m 421.01946,-249.53049 0,-0.28417 -5.60592,0 0,0.28417 2.01503,1.08501 0,6.58761 -9.97182,0 0,-6.58761 1.9892,-1.08501 0,-0.28417 -5.63176,0 0,0.28417 2.01503,1.08501 0,14.82857 -2.01503,1.08501 0,0.28417 5.63176,0 0,-0.28417 -1.9892,-1.08501 0,-6.76844 9.97182,0 0,6.76844 -2.01503,1.08501 0,0.28417 5.60592,0 0,-0.28417 -1.96337,-1.05918 0,-14.88023 1.96337,-1.05918 z"
             inkscape:connector-curvature="0" /><path
             id="path4858"
             style="font-style:normal;font-variant:normal;font-weight:300;font-stretch:normal;font-family:Lovato;-inkscape-font-specification:'Lovato Light'"
             d="m 439.39571,-233.92692 -6.79427,-16.30108 -0.31001,0 -6.8201,16.27525 -1.9892,1.42085 0,0.28417 5.68342,0 0,-0.28417 -1.98919,-1.08501 -0.12917,0 1.80836,-4.46924 7.02677,0 1.86003,4.49507 -1.9892,1.05918 0,0.28417 5.60592,0 0,-0.28417 -1.96336,-1.39502 z m -9.97182,-5.60592 2.89338,-7.20761 2.97088,7.20761 -5.86426,0 z"
             inkscape:connector-curvature="0" /><path
             id="path4860"
             style="font-style:normal;font-variant:normal;font-weight:300;font-stretch:normal;font-family:Lovato;-inkscape-font-specification:'Lovato Light'"
             d="m 458.46646,-232.5319 -2.3767,-1.24002 -5.60592,-6.22593 c 2.68671,-0.0775 5.52842,-1.83419 5.52842,-4.85674 0,-2.99671 -2.40254,-4.96007 -5.39925,-4.96007 l -7.33678,0 0,0.28417 2.01503,1.08501 0,14.82857 -2.01503,1.08501 0,0.28417 5.76092,0 0,-0.28417 -2.11836,-1.05918 0,-14.75106 3.17754,0 c 2.40254,0 4.1334,1.18835 4.1334,3.46172 0,2.2992 -1.73086,3.48755 -4.1334,3.48755 l -2.3767,0 0,0.36168 7.38845,8.78346 3.35838,0 0,-0.28417 z"
             inkscape:connector-curvature="0" /><path
             id="path4862"
             style="font-style:normal;font-variant:normal;font-weight:300;font-stretch:normal;font-family:Lovato;-inkscape-font-specification:'Lovato Light'"
             d="m 478.49849,-233.59108 -0.51668,-14.57022 2.04087,-1.44669 0,-0.20667 -3.02255,0 -6.76844,9.86848 -6.5876,-9.86848 -3.12588,0 0,0.20667 1.96336,1.44669 -0.51667,14.57022 -1.96337,1.05918 0,0.28417 5.52842,0 0,-0.28417 -1.86003,-1.00751 0.54251,-12.37436 5.83843,8.5768 0.3875,0 5.89009,-8.5768 0.46501,12.37436 -1.88586,1.00751 0,0.28417 5.52841,0 0,-0.28417 -1.93752,-1.05918 z"
             inkscape:connector-curvature="0" /><path
             id="path4864"
             style="font-style:normal;font-variant:normal;font-weight:300;font-stretch:normal;font-family:Lovato;-inkscape-font-specification:'Lovato Light'"
             d="m 490.8997,-250.20217 c -4.98591,0 -9.17098,3.87506 -9.17098,9.17098 0,5.19258 4.18507,9.17097 9.17098,9.17097 5.01174,0 9.17097,-3.97839 9.17097,-9.17097 0,-5.29592 -4.15923,-9.17098 -9.17097,-9.17098 z m 0,1.52419 c 4.3659,0 7.36261,3.46172 7.36261,7.64679 0,4.05589 -2.99671,7.64678 -7.36261,7.64678 -4.34007,0 -7.36262,-3.59089 -7.36262,-7.64678 0,-4.15924 3.02255,-7.64679 7.36262,-7.64679 z"
             inkscape:connector-curvature="0" /><path
             id="path4866"
             style="font-style:normal;font-variant:normal;font-weight:300;font-stretch:normal;font-family:Lovato;-inkscape-font-specification:'Lovato Light'"
             d="m 515.02254,-249.81466 0,0.28417 2.01503,1.08501 0,12.09019 -11.05684,-13.48521 -3.48755,0 0,0.18084 1.96336,1.52419 0,14.51856 -2.01503,1.08501 0,0.28417 5.70926,0 0,-0.28417 -1.9892,-1.08501 0,-13.33021 12.34852,15.0869 0.23251,0 0,-16.58526 1.98919,-1.08501 0,-0.28417 -5.70925,0 z"
             inkscape:connector-curvature="0" /><path
             id="path4868"
             style="font-style:normal;font-variant:normal;font-weight:300;font-stretch:normal;font-family:Lovato;-inkscape-font-specification:'Lovato Light'"
             d="m 528.66457,-249.53049 0,-0.28417 -5.63175,0 0,0.28417 2.01503,1.08501 0,14.82857 -2.01503,1.08501 0,0.28417 5.63175,0 0,-0.28417 -1.98919,-1.08501 0,-14.82857 1.98919,-1.08501 z"
             inkscape:connector-curvature="0" /><path
             id="path4870"
             style="font-style:normal;font-variant:normal;font-weight:300;font-stretch:normal;font-family:Lovato;-inkscape-font-specification:'Lovato Light'"
             d="m 547.01439,-233.92692 -6.79427,-16.30108 -0.31,0 -6.82011,16.27525 -1.9892,1.42085 0,0.28417 5.68343,0 0,-0.28417 -1.9892,-1.08501 -0.12917,0 1.80836,-4.46924 7.02677,0 1.86003,4.49507 -1.98919,1.05918 0,0.28417 5.60592,0 0,-0.28417 -1.96337,-1.39502 z m -9.97182,-5.60592 2.89338,-7.20761 2.97088,7.20761 -5.86426,0 z"
             inkscape:connector-curvature="0" /></g></g></g></g></svg>